<svg clip-rule="evenodd" stroke-linecap="round" stroke-linejoin="round" stroke-miterlimit="10" viewBox="90.3097 61.513885 843.3803 900.97217" xmlns="http://www.w3.org/2000/svg" xmlns:xlink="http://www.w3.org/1999/xlink"><defs><linearGradient id="a" gradientTransform="matrix(1.45683 1.45683 -1.45683 1.45683 791.244 -704.133)" gradientUnits="userSpaceOnUse" x1="368.462" x2="242.331" y1="427.053" y2="553.614"><stop offset=".422592" stop-color="#33312c"/><stop offset="1" stop-color="#f3c622"/></linearGradient><path id="b" d="m435.113 448.413c0-72.69 58.68-179.721 76.096-179.721s77.664 102.265 77.664 174.954c0 72.69-56.088 157.131-77.664 157.131s-76.096-79.674-76.096-152.364z"/><path id="c" d="m435.113 448.413c0-72.69 58.68-179.721 76.096-179.721s77.664 102.265 77.664 174.954c0 72.69-56.088 157.131-77.664 157.131s-76.096-79.674-76.096-152.364z"/><path id="d" d="m435.113 448.413c0-72.69 58.68-179.721 76.096-179.721s77.664 102.265 77.664 174.954c0 72.69-56.088 157.131-77.664 157.131s-76.096-79.674-76.096-152.364z"/><path id="e" d="m435.12 368.838s39.099 9.425 76.887 9.497c37.789.072 76.873-8.95 76.873-8.95"/><clipPath id="f" clip-rule="nonzero"><use clip-rule="nonzero" xlink:href="#b"/></clipPath><clipPath id="g" clip-rule="nonzero"><use clip-rule="nonzero" xlink:href="#c"/></clipPath><clipPath id="h" clip-rule="nonzero"><use clip-rule="nonzero" xlink:href="#d"/></clipPath><clipPath id="i" clip-rule="nonzero"><use clip-rule="nonzero" xlink:href="#e"/></clipPath></defs><g><path d="m186.233 387.278c0-179.914 145.851-325.7641 325.765-325.7641 179.918 0 325.769 145.8501 325.769 325.7641 0 179.915-145.851 325.765-325.769 325.765-179.914 0-325.765-145.85-325.765-325.765" fill="#f28f22"/><g fill="#e0f222"><path d="m201.331 485.485c3.516-3.951 6.851-7.892 9.963-11.825 60.091-76.024 37.856-129.891-13.135-173.669-7.716 27.793-11.924 57.039-11.924 87.286 0 34.232 5.309 67.213 15.096 98.208"/><path d="m421.163 405.098c22.497-81.819-80.022-152.457-174.984-206.018-7.179 10.118-13.837 20.623-19.841 31.549 82.927 47.54 164.431 111.73 130.316 192.672-22.429 53.204-77.941 90.006-123.946 131.7 5.906 9.817 12.319 19.291 19.196 28.395 58.04-58.595 147.449-98.969 169.259-178.298"/><path d="m597.923 323.807c31.369 119.192-143.521 195.534-208.963 268.498-22.656 25.261-40.159 46.882-49.654 71.159 9.452 5.923 19.209 11.394 29.28 16.337 5.188-23.236 15.964-46.95 34.254-71.566 68.962-92.818 248.025-152.65 223.473-289.332-18.595-103.517-128.137-157.061-164.389-253.5533-22.927 3.5375-45.029 9.5251-66.116 17.5801 51.493 90.8832 175.018 137.9112 202.115 240.8772"/><path d="m705.481 304.305c34.898 155.904-185.85 218.96-259.455 326.04-15.542 22.604-22.948 46.026-24.767 69.796 13.067 3.782 26.439 6.834 40.125 8.97 1.388-24.642 8.416-48.885 23.731-72.224 73.686-112.302 301.857-168.799 274.993-328.374-12.723-75.586-59.665-134.159-84.767-203.048-25.313-14.7042-52.745-26.172-81.792-33.6597 24.637 84.0537 92.215 144.4317 111.932 232.4997"/><path d="m324.339 611.223c57.198-75.427 238.741-147.346 228.391-258.475-9.138-98.1-150.067-158.672-236.575-225.786-9.714 7.32-18.955 15.212-27.78 23.551 97.31 61.341 227.596 126.963 225.06 214.726-3.336 115.393-166.061 168.193-228.554 255.474 6.873 6.689 14.012 13.097 21.453 19.162 4.84-9.594 10.797-19.149 18.005-28.652"/><path d="m638.481 629.524c39.187-68.36 112.607-102.785 183.043-140.658 2.386-7.277 4.56-14.648 6.439-22.145-68.485 47.643-151.537 81.122-203.284 150.712-19.708 26.503-26.912 54.76-26.168 83.907 8.205-2.256 16.303-4.767 24.233-7.634-.468-22.26 4.049-43.799 15.737-64.182"/><path d="m686.471 644.764c-2.893 6.98-4.771 14.098-5.859 21.298 51.124-30.986 92.969-75.68 120.615-128.936-51.678 27.307-95.053 60.099-114.756 107.638"/><path d="m836.666 412.919c.662-8.472 1.101-17.004 1.101-25.639 0-16.6-1.26-32.899-3.654-48.829-11.433 133.914-199.592 182.472-270.72 281.617-22.734 31.691-32.831 62.308-34.774 92.555 9.422-.473 18.715-1.427 27.914-2.686.945-27.114 8.325-54.357 25.338-81.87 56.11-90.742 192.818-129.362 254.795-215.148"/></g></g><g><g stroke="#33312c" stroke-linejoin="round" stroke-width="24.4819"><path d="m435.113 448.413c0-72.69 58.68-179.721 76.096-179.721s77.664 102.265 77.664 174.954c0 72.69-56.088 157.131-77.664 157.131s-76.096-79.674-76.096-152.364z" fill="url(#a)" stroke-linecap="butt"/><path d="m439.233 268.692s1.919-72.759 72.76-72.759 72.759 72.759 72.759 72.759z" fill="#f3c622" stroke-linecap="butt"/><path d="m480.188 195.933s-12.67-29.588-37.864-20.375" fill="none" stroke-linecap="round"/><path d="m545.337 195.933s12.669-29.588 37.864-20.375" fill="none" stroke-linecap="round"/></g><g><use fill="none" stroke="#f2ac22" stroke-linecap="butt" stroke-linejoin="round" stroke-width="24.4819" xlink:href="#b"/><g clip-path="url(#f)"><path d="m435.113 425.238s39.099 9.425 76.887 9.497 76.873-8.95 76.873-8.95" fill="none" stroke="#f2de22" stroke-linecap="butt" stroke-linejoin="miter" stroke-width="24.4819"/></g></g><g><use fill="none" stroke="#f3c622" stroke-linecap="butt" stroke-linejoin="round" stroke-width="24.4819" xlink:href="#c"/><g clip-path="url(#g)"><path d="m439.233 481.653s36.387 12.239 72.767 12.239 72.752-12.239 72.752-12.239" fill="none" stroke="#f3c622" stroke-linecap="round" stroke-linejoin="miter" stroke-width="24.4819"/></g></g><g><use fill="none" stroke="#f2de22" stroke-linecap="butt" stroke-linejoin="round" stroke-width="24.4819" xlink:href="#d"/><g clip-path="url(#h)"><path d="m461.256 540.174s26.203 9.412 50.737 9.349c24.534-.062 47.398-9.598 47.398-9.598" fill="none" stroke="#f2de22" stroke-linecap="square" stroke-linejoin="miter" stroke-width="24.4819"/></g></g><g><use fill="none" stroke="#f3c622" stroke-linecap="butt" stroke-linejoin="miter" stroke-width="24.4819" xlink:href="#e"/><g clip-path="url(#i)"><path d="m435.113 448.413c0-72.69 58.68-179.721 76.096-179.721s77.664 102.265 77.664 174.954c0 72.69-56.088 157.131-77.664 157.131s-76.096-79.674-76.096-152.364z" fill="none" stroke="#f3c622" stroke-linecap="butt" stroke-linejoin="round" stroke-width="24.4819"/></g></g><path d="m435.113 448.413c0-72.69 58.68-179.721 76.096-179.721s77.664 102.265 77.664 174.954c0 72.69-56.088 157.131-77.664 157.131s-76.096-79.674-76.096-152.364z" fill="none" stroke="#33312c" stroke-linecap="butt" stroke-linejoin="round" stroke-width="24.4819"/><path d="m490.453 269.446c-40.328.357-128.872 15.982-192.184 56.11-103.222 65.422-34.045 143.533 27.942 142.673 95.975-1.332 185.778-167.967 185.778-194.373 0-1.744-2.869-3.017-8.028-3.736-3.506-.489-8.069-.722-13.508-.674zm21.536 4.41c0 26.406 89.803 193.041 185.778 194.373 61.987.86 131.196-77.251 27.974-142.673-71.502-45.319-175.232-59.364-205.296-55.48-5.429.701-8.456 1.988-8.456 3.78z" fill="#fff" stroke="#33312c" stroke-linecap="butt" stroke-linejoin="round" stroke-width="24.4819"/></g><g fill="#f3c622"><path d="m154.919 924.533c-9.525 0-17.758-2.016-24.698-6.048-6.941-4.031-12.252-10.221-15.935-18.567-3.683-8.347-5.525-18.926-5.525-31.736 0-12.839 1.923-23.398 5.77-31.676 3.846-8.278 9.253-14.446 16.22-18.504s15.023-6.088 24.168-6.088c10.346 0 19.632 2.308 27.859 6.923s14.742 11.13 19.546 19.544c4.804 8.415 7.206 18.349 7.206 29.801 0 11.453-2.402 21.387-7.206 29.801-4.804 8.415-11.319 14.944-19.546 19.586-8.227 4.643-17.513 6.964-27.859 6.964zm-64.6093-1.546v-151.074h31.7623v63.658l-2.036 32.487.534 32.491v22.438zm59.1443-24.461c5.276 0 10.009-1.204 14.198-3.611s7.527-5.908 10.016-10.503 3.733-10.005 3.733-16.23c0-6.36-1.244-11.791-3.733-16.291-2.489-4.501-5.827-7.954-10.016-10.362-4.189-2.407-8.922-3.61-14.198-3.61-5.277 0-10.01 1.203-14.2 3.61-4.19 2.408-7.529 5.861-10.018 10.362-2.489 4.5-3.733 9.931-3.733 16.291 0 6.225 1.244 11.635 3.733 16.23s5.828 8.096 10.018 10.503 8.923 3.611 14.2 3.611z"/><path d="m295.476 924.533c-9.145 0-17.201-2.029-24.168-6.087-6.967-4.059-12.374-10.248-16.22-18.568s-5.769-18.859-5.769-31.616c0-12.946 1.841-23.558 5.524-31.837s8.995-14.434 15.935-18.464c6.941-4.031 15.173-6.047 24.698-6.047 10.346 0 19.632 2.321 27.859 6.963 8.227 4.641 14.742 11.169 19.546 19.584s7.206 18.348 7.206 29.801c0 11.455-2.402 21.389-7.206 29.804s-11.319 14.929-19.546 19.544-17.513 6.923-27.859 6.923zm-64.609 37.953v-149.029h30.261v22.438l-.535 32.491 2.036 32.491v61.609zm59.144-63.96c5.277 0 10.009-1.204 14.198-3.611s7.527-5.895 10.016-10.463c2.489-4.569 3.734-9.965 3.734-16.19 0-6.361-1.245-11.804-3.734-16.331s-5.827-7.994-10.016-10.402c-4.189-2.407-8.921-3.61-14.198-3.61s-10.01 1.203-14.2 3.61c-4.19 2.408-7.529 5.875-10.018 10.402s-3.733 9.97-3.733 16.331c0 6.225 1.244 11.621 3.733 16.19 2.489 4.568 5.828 8.056 10.018 10.463s8.923 3.611 14.2 3.611z"/><path d="m375.286 922.987v-112.017c0-12.34 3.655-22.192 10.963-29.556 7.309-7.365 17.757-11.048 31.346-11.048 4.557 0 8.986.462 13.285 1.386s7.94 2.377 10.924 4.36l-8.29 22.998c-1.739-1.171-3.716-2.11-5.932-2.817-2.215-.708-4.519-1.061-6.911-1.061-4.649 0-8.238 1.325-10.766 3.976s-3.792 6.666-3.792 12.045v10.209l.936 13.654v87.871zm-16.991-82.727v-24.378h75.979v24.378z"/></g><g fill="#999"><path d="m622.906 811.914c8.662 0 16.352 1.71 23.071 5.13s11.992 8.693 15.819 15.818 5.741 16.278 5.741 27.459v62.666h-31.762v-57.919c0-8.806-1.83-15.303-5.488-19.49-3.659-4.188-8.754-6.282-15.286-6.282-4.681 0-8.844 1.047-12.49 3.142-3.646 2.094-6.482 5.235-8.508 9.423-2.027 4.187-3.04 9.571-3.04 16.15v54.976h-31.766v-57.919c0-8.806-1.802-15.303-5.406-19.49-3.605-4.188-8.727-6.282-15.368-6.282-4.678 0-8.841 1.047-12.488 3.142-3.647 2.094-6.483 5.235-8.51 9.423-2.026 4.187-3.04 9.571-3.04 16.15v54.976h-31.762v-109.53h30.261v29.879l-5.765-8.713c3.799-7.434 9.206-13.077 16.223-16.93 7.017-3.852 14.992-5.779 23.925-5.779 10.019 0 18.796 2.525 26.329 7.574 7.533 5.048 12.548 12.824 15.044 23.327l-11.22-3.099c3.661-8.492 9.516-15.249 17.567-20.27s17.357-7.532 27.919-7.532z"/><path d="m763.238 922.987v-21.347l-1.905-4.804v-38.198c0-6.822-2.073-12.109-6.218-15.86-4.146-3.751-10.524-5.626-19.134-5.626-5.761 0-11.465.903-17.114 2.709s-10.47 4.271-14.464 7.395l-11.341-22.104c6.023-4.318 13.234-7.604 21.632-9.857 8.399-2.254 16.942-3.381 25.629-3.381 16.764 0 29.75 3.928 38.959 11.782 9.208 7.855 13.813 20.097 13.813 36.727v62.564zm-33.28 1.546c-8.519 0-15.833-1.438-21.941-4.315s-10.785-6.826-14.03-11.848c-3.245-5.021-4.867-10.68-4.867-16.977 0-6.456 1.586-12.134 4.759-17.034s8.219-8.742 15.138-11.526c6.92-2.784 15.944-4.175 27.072-4.175h28.985v18.508h-25.463c-7.508 0-12.648 1.211-15.42 3.632s-4.158 5.52-4.158 9.297c0 3.971 1.578 7.152 4.734 9.546 3.155 2.393 7.495 3.59 13.017 3.59 5.334 0 10.123-1.238 14.367-3.713s7.305-6.2 9.182-11.176l4.797 14.749c-2.255 6.969-6.437 12.285-12.549 15.948-6.111 3.663-13.985 5.494-23.623 5.494z"/><path d="m888.207 811.914c8.715 0 16.492 1.71 23.333 5.13s12.243 8.693 16.206 15.818 5.944 16.278 5.944 27.459v62.666h-31.762v-57.919c0-8.806-1.938-15.303-5.815-19.49-3.877-4.188-9.312-6.282-16.305-6.282-5.088 0-9.631 1.06-13.628 3.181-3.998 2.121-7.105 5.343-9.322 9.665-2.216 4.323-3.324 9.881-3.324 16.677v54.168h-31.762v-109.53h30.26v30.366l-5.685-9.121c3.934-7.431 9.56-13.087 16.876-16.967s15.644-5.821 24.984-5.821z"/></g></svg>