<svg xmlns="http://www.w3.org/2000/svg" xmlns:xlink="http://www.w3.org/1999/xlink" viewBox="-3.26 -3.26 195.26 188.01"><defs><filter id="a" width="1.229" height="1.281" x="-.115" y="-.07"><feOffset dy="2" in="SourceAlpha" result="shadowOffsetOuter1"/><feGaussianBlur in="shadowOffsetOuter1" result="shadowBlurOuter1" stdDeviation="1"/><feColorMatrix in="shadowBlurOuter1" values="0 0 0 0 0 0 0 0 0 0 0 0 0 0 0 0 0 0 0.25427423 0"/></filter><filter id="d" width="1.229" height="1.281" x="-.115" y="-.07"><feOffset dy="2" in="SourceAlpha" result="shadowOffsetOuter1"/><feGaussianBlur in="shadowOffsetOuter1" result="shadowBlurOuter1" stdDeviation="1"/><feColorMatrix in="shadowBlurOuter1" values="0 0 0 0 0 0 0 0 0 0 0 0 0 0 0 0 0 0 0.25427423 0"/></filter><filter id="f" width="1.201" height="1.246" y="-.088"><feOffset dy="1" in="SourceAlpha" result="shadowOffsetOuter1"/><feGaussianBlur in="shadowOffsetOuter1" result="shadowBlurOuter1" stdDeviation="1"/><feColorMatrix in="shadowBlurOuter1" values="0 0 0 0 0 0 0 0 0 0 0 0 0 0 0 0 0 0 0.101987092 0"/></filter><filter id="h" width="1.215" height="1.229" x="-.107" y="-.082"><feOffset dy="1" in="SourceAlpha" result="shadowOffsetOuter1"/><feGaussianBlur in="shadowOffsetOuter1" result="shadowBlurOuter1" stdDeviation="1"/><feColorMatrix in="shadowBlurOuter1" values="0 0 0 0 0 0 0 0 0 0 0 0 0 0 0 0 0 0 0.101987092 0"/></filter><filter id="j" width="1.125" height="1.162" x="-.062" y="-.066"><feMorphology in="SourceAlpha" operator="dilate" radius=".5" result="shadowSpreadOuter1"/><feOffset dy="1" in="shadowSpreadOuter1" result="shadowOffsetOuter1"/><feGaussianBlur in="shadowOffsetOuter1" result="shadowBlurOuter1" stdDeviation="1.5"/><feComposite in="shadowBlurOuter1" in2="SourceAlpha" operator="out" result="shadowBlurOuter1"/><feColorMatrix in="shadowBlurOuter1" values="0 0 0 0 0.160909878 0 0 0 0 0.252651212 0 0 0 0 0.527875213 0 0 0 0.35326087 0"/></filter><filter id="l" width="1.234" height="1.221" x="-.117" y="-.081"><feMorphology in="SourceAlpha" operator="dilate" radius=".5" result="shadowSpreadOuter1"/><feOffset dy="2" in="shadowSpreadOuter1" result="shadowOffsetOuter1"/><feGaussianBlur in="shadowOffsetOuter1" result="shadowBlurOuter1" stdDeviation="2"/><feComposite in="shadowBlurOuter1" in2="SourceAlpha" operator="out" result="shadowBlurOuter1"/><feColorMatrix in="shadowBlurOuter1" values="0 0 0 0 0.235294118 0 0 0 0 0.380392157 0 0 0 0 0.815686275 0 0 0 0.15942029 0"/></filter><filter id="n" width="1.349" height="1.091" x="-.201" y="-.031"><feMorphology in="SourceAlpha" radius=".5" result="shadowSpreadOuter1"/><feOffset dx="-1" dy="2" in="shadowSpreadOuter1" result="shadowOffsetOuter1"/><feGaussianBlur in="shadowOffsetOuter1" result="shadowBlurOuter1" stdDeviation="2"/><feColorMatrix in="shadowBlurOuter1" values="0 0 0 0 0.628029337 0 0 0 0 0.25783008 0 0 0 0 0.0713793602 0 0 0 0.311141304 0"/></filter><filter id="p" width="1.056" height="1.315" x="-.028" y="-.095"><feMorphology in="SourceAlpha" radius=".5" result="shadowSpreadOuter1"/><feOffset dy="2" in="shadowSpreadOuter1" result="shadowOffsetOuter1"/><feGaussianBlur in="shadowOffsetOuter1" result="shadowBlurOuter1" stdDeviation="1.5"/><feColorMatrix in="shadowBlurOuter1" values="0 0 0 0 0.589896896 0 0 0 0 0.444269767 0 0 0 0 0.0232174145 0 0 0 0.213966259 0"/></filter><filter id="r" width="1.028" height="1.126" x="-.021" y="-.063"><feOffset dx="-1" in="SourceAlpha" result="shadowOffsetOuter1"/><feGaussianBlur in="shadowOffsetOuter1" result="shadowBlurOuter1" stdDeviation=".5"/><feColorMatrix in="shadowBlurOuter1" values="0 0 0 0 0.781329719 0 0 0 0 0.53013306 0 0 0 0 0.202916359 0 0 0 0.311962183 0"/></filter><rect id="b" width="34.909" height="28.444" x="75.877" y="91.103" rx="1"/><rect id="e" width="34.909" height="28.444" x="118.932" y="91.103" rx="1"/><rect id="g" width="34.909" height="28.444" x="118.932" y="55.094" rx="1"/><rect id="o" width="37.236" height="143.316" x=".241" y="31.026" rx="1"/><path id="k" d="m114.79 102.126 28.06 67.84H87.42l-32.576-47.82z"/><path id="m" d="m115.44 102.126 64.067 19.9-36.986 47.94-27.08-.387z"/><path id="q" d="M1.95 32.112h176.42a1 1 0 0 0 .206-1.978L37.423.389a1 1 0 0 0-.851.214L1.306 30.348a1 1 0 0 0 .644 1.764"/><path id="s" d="m37.72.617 70.065 31.37 70.893.448a1 1 0 0 0 .213-1.978z"/><ellipse id="i" cx="94.332" cy="70.41" rx="16.291" ry="15.316"/></defs><g fill="none" fill-rule="evenodd" transform="translate(5.12 1)"><use width="100%" height="100%" fill="#000" filter="url(#a)" xlink:href="#b"/><use width="100%" height="100%" fill="#b2dce9" xlink:href="#b"/><use width="100%" height="100%" fill="#000" filter="url(#d)" xlink:href="#e"/><use width="100%" height="100%" fill="#b2dce9" xlink:href="#e"/><use width="100%" height="100%" fill="#000" filter="url(#f)" xlink:href="#g"/><use width="100%" height="100%" fill="#b2dce9" xlink:href="#g"/><use width="100%" height="100%" fill="#000" filter="url(#h)" xlink:href="#i"/><use width="100%" height="100%" fill="#c8d8e4" xlink:href="#i"/><g fill-rule="nonzero"><g stroke-linejoin="round"><use width="100%" height="100%" fill="#000" filter="url(#j)" xlink:href="#k"/><use width="100%" height="100%" fill="#3b87ec" stroke="#3b87ec" xlink:href="#k"/></g><g stroke-linejoin="round"><use width="100%" height="100%" fill="#000" filter="url(#l)" xlink:href="#m"/><use width="100%" height="100%" fill="#3c61d0" stroke="#3c61d0" xlink:href="#m"/></g><use width="100%" height="100%" fill="#000" filter="url(#n)" xlink:href="#o"/><use width="100%" height="100%" fill="#f6961f" xlink:href="#o"/><rect width="37.236" height="54.701" x=".241" y="31.026" fill="#ffd16a" rx="1"/><path fill="#f9b861" d="M.24 78.068h37.237v47.043H.241z"/><use width="100%" height="100%" fill="#000" filter="url(#p)" xlink:href="#q"/><use width="100%" height="100%" fill="#f6961f" xlink:href="#q"/></g><path fill="#f9b861" d="M37.157.59v31.735h70.978z"/><use width="100%" height="100%" fill="#000" filter="url(#r)" xlink:href="#s"/><use width="100%" height="100%" fill="#ffd16a" xlink:href="#s"/></g></svg>