<svg xmlns="http://www.w3.org/2000/svg" viewBox="1 1 633 557" xml:space="preserve"><path d="M329 1h305c0 134.689 0 269.377-.349 404.435-2.235-1.234-4.042-4.083-6.022-4.21-6.554-.416-13.464-.995-19.693.606-9.255 2.379-17.666 1.747-26.014-2.404-11.928-5.932-20.814-15.527-28.526-25.863-17.005-22.791-29.986-47.843-39.477-74.706-3.195-9.044-9.275-16.056-19.302-16.603-6.977-.38-14.346.828-21.085 2.846-12.993 3.89-25.505 9.408-38.527 13.18-8.49 2.458-16.623-.767-23.926-4.87 8.881-6.824 17.97-12.845 25.919-20.114 17.09-15.627 30.464-34.023 39.75-55.458 11.102-25.623 13.626-52.304 10.032-79.513-2.275-17.225-8.297-33.564-16.868-48.849-12.308-21.95-28.856-40.032-49.411-54.453-22.706-15.928-47.642-26.538-75.09-31.055C339.926 3.067 334.469 1.994 329 1M1 424V1c96.022 0 192.044 0 288.376.397-8.662 1.798-17.758 2.66-26.585 4.694-32.138 7.403-60.288 22.675-84.308 45.133-11.543 10.794-20.93 23.446-28.87 37.315-10.365 18.108-16.723 37.47-18.3 57.976-1.027 13.362.182 27.065 1.876 40.427 2.46 19.408 10.437 37.052 20.834 53.497 10.076 15.939 22.95 29.461 38.09 41.552-9.147 0-17.743-.875-26.1.164-25.039 3.116-43.179 17.098-54.853 38.836-11.945 22.244-15.819 47.364-23.186 71.24-3.503 11.354-7.193 22.7-14.323 32.4-3.086 4.199-7.185 8.352-12.696 8.188-9.777-.29-19.682-.862-29.232-2.8-7.572-1.536-14.804-5.04-21.97-8.165C5.913 420.18 3.404 421.196 1 424m633-10v144c-153.688 0-307.375 0-461.393-.383 5.226-1.937 11.077-2.834 16.282-5.169 15.482-6.943 28.581-17.29 39.395-30.32 11.014-13.272 22.286-26.408 32.243-40.456 10.308-14.546 19.257-30.062 28.645-45.25 10.294-16.656 18.39-34.356 24.369-52.512 1.098 5.47 2.159 11.357 3.474 17.187 4.92 21.81 11.719 43.022 21.116 63.325 7.281 15.732 16.127 30.591 27.557 43.684 13.389 15.336 29.989 25.806 50.09 29.734 10.668 2.084 21.575 3.096 32.424 4.007 3.485.293 8.178-.517 8.993-4.8.548-2.885-.269-7.27-2.231-9.146-4.741-4.534-10.003-9.384-15.983-11.57-9.862-3.604-16.64-10.553-22.739-18.038-13.5-16.568-21.367-36.075-26.932-56.555a9 9 0 0 1-.285-1.903c-.024-.477.101-.962.21-1.858 9.633 14.29 19.817 27.133 32.79 37.661 8.971 7.282 18.452 13.453 29.35 17.447 11.66 4.272 23.516 6.288 35.845 3.872 1.99-.39 3.85-1.434 5.77-2.176-1.228-1.688-2.117-3.876-3.741-4.982-8.545-5.819-17.244-11.217-23.355-20.056-10.94-15.824-20.15-32.509-27.134-50.424-2.66-6.82-5.797-13.533-5.732-21.233 8.157 1.729 12.673 6.71 16.035 13.693 12.614 26.201 26.166 51.826 49.11 70.898 8.43 7.007 17.916 12.786 28.684 14.023 11.677 1.342 23.635.528 35.456.168 3.731-.114 7.576-1.405 11.082-2.852 5.227-2.158 5.93-7.143 1.124-10.004-8.097-4.819-16.754-8.682-25.026-13.22-22.972-12.599-37.655-32.29-47.462-56.065-.853-2.069-1.523-4.214-2.242-6.335-.657-1.938-1.266-3.892-1.896-5.838 9.486 8.96 20.122 15.465 31.692 20.23 14.494 5.972 29.585 10.025 45.311 11.2 6.405.48 12.936.103 19.215 1.212 8.184 1.445 15.692-.016 23.169-2.934 8.573-3.345 13.176-10.317 16.72-18.262"/><path fill="#080101" d="M634 413.556c-3.544 8.39-8.147 15.361-16.72 18.706-7.477 2.918-14.985 4.38-23.169 2.934-6.28-1.11-12.81-.732-19.215-1.211-15.726-1.176-30.817-5.23-45.311-11.2-11.57-4.766-22.206-11.272-31.692-20.231.63 1.946 1.239 3.9 1.896 5.838.72 2.121 1.39 4.266 2.242 6.335 9.807 23.774 24.49 43.466 47.462 56.066 8.272 4.537 16.93 8.4 25.026 13.22 4.805 2.86 4.103 7.845-1.124 10.003-3.506 1.447-7.35 2.738-11.082 2.852-11.821.36-23.78 1.174-35.456-.168-10.768-1.237-20.254-7.016-28.684-14.023-22.944-19.072-36.496-44.697-49.11-70.898-3.362-6.983-7.878-11.964-16.035-13.693-.065 7.7 3.073 14.412 5.732 21.233 6.984 17.915 16.194 34.6 27.134 50.424 6.11 8.84 14.81 14.237 23.355 20.056 1.624 1.106 2.513 3.294 3.74 4.982-1.92.742-3.78 1.787-5.769 2.176-12.329 2.416-24.185.4-35.845-3.872-10.898-3.994-20.379-10.165-29.35-17.447-12.973-10.528-23.157-23.371-32.79-37.661-.109.896-.234 1.381-.21 1.858.031.639.117 1.287.285 1.903 5.565 20.48 13.433 39.987 26.932 56.555 6.099 7.485 12.877 14.434 22.74 18.039 5.979 2.185 11.24 7.035 15.982 11.569 1.962 1.877 2.78 6.26 2.23 9.145-.814 4.284-5.507 5.094-8.992 4.801-10.849-.91-21.756-1.923-32.423-4.007-20.102-3.928-36.702-14.398-50.091-29.734-11.43-13.093-20.276-27.952-27.557-43.684-9.397-20.303-16.197-41.514-21.116-63.325-1.315-5.83-2.376-11.717-3.474-17.187-5.979 18.156-14.075 35.856-24.37 52.511-9.387 15.189-18.336 30.705-28.644 45.25-9.957 14.05-21.23 27.185-32.243 40.457-10.814 13.03-23.913 23.377-39.395 30.32-5.205 2.335-11.056 3.232-16.75 5.169-5.827.383-11.515.383-17.809 0-6.134-1.02-11.845-1.648-15.435-6.46-1.375-1.843-2.102-4.968-1.58-7.135.33-1.367 3.427-2.486 5.454-2.932 3.638-.8 7.743-.21 11.06-1.608 11.46-4.834 21.484-12.239 28.852-22.09 13.12-17.545 24.567-36.243 33.674-56.256 1.857-4.081 3.356-8.325 5.02-12.493-3.502 2.544-6.418 5.222-8.764 8.329-10.736 14.216-21.16 28.669-32.005 42.8-6.196 8.073-17.333 13.55-27.28 7.322-5.2-3.256-5.665-5.987-1.12-9.851 1.011-.86 2.212-1.71 2.787-2.838 6.364-12.487 12.62-25.029 18.906-37.555l-1.8-.934c-4.913 8.425-9.913 16.801-14.72 25.287-7.078 12.499-16.948 22.036-29.584 28.841-20.827 11.216-43.108 12.805-65.974 9.781-2.77-.366-5.213-3.197-7.808-4.886 1.706-2.518 3.333-5.095 5.168-7.514.533-.702 1.623-1.074 2.53-1.383 5.29-1.803 10.518-3.882 15.926-5.234 11.8-2.949 21.558-9.479 30.303-17.426 8.221-7.47 16.592-15.124 21.03-25.678 10.81-25.699 21.274-51.542 32.084-77.24 3.156-7.501 6.004-15.376 13.253-20.267 3.792-2.56 7.614-5.073 12.303-8.192-16.244-.02-29.772 4.297-37.366 18.047-7.713 13.966-13.931 28.804-20.148 43.538-7.934 18.8-17.435 36.321-35.072 47.842-17.774 11.61-36.213 13.708-55.632 3.686C23.058 457.203 11.705 445.022 1 432v-7.556c2.404-3.248 4.912-4.265 8.753-2.59 7.166 3.125 14.398 6.629 21.97 8.165 9.55 1.938 19.455 2.51 29.232 2.8 5.511.164 9.61-3.99 12.696-8.187 7.13-9.7 10.82-21.047 14.323-32.401 7.367-23.876 11.241-48.996 23.186-71.24 11.674-21.738 29.814-35.72 54.853-38.836 8.357-1.04 16.953-.164 26.1-.164-15.14-12.091-28.014-25.613-38.09-41.552-10.397-16.445-18.374-34.089-20.834-53.497-1.694-13.362-2.903-27.065-1.876-40.427 1.577-20.506 7.935-39.868 18.3-57.976 7.94-13.869 17.327-26.52 28.87-37.315 24.02-22.458 52.17-37.73 84.308-45.133 8.827-2.033 17.923-2.896 27.052-4.694C302.688 1 315.375 1 328.53 1c5.938.994 11.395 2.067 16.88 2.97 27.448 4.516 52.384 15.126 75.09 31.054 20.555 14.42 37.103 32.504 49.411 54.453 8.571 15.285 14.593 31.624 16.868 48.85 3.594 27.208 1.07 53.89-10.032 79.512-9.286 21.435-22.66 39.831-39.75 55.458-7.95 7.269-17.038 13.29-25.919 20.114 7.303 4.103 15.436 7.328 23.926 4.87 13.022-3.772 25.534-9.29 38.527-13.18 6.74-2.018 14.108-3.227 21.085-2.846 10.027.547 16.107 7.559 19.302 16.603 9.49 26.863 22.472 51.915 39.477 74.706 7.712 10.336 16.598 19.931 28.526 25.863 8.348 4.15 16.759 4.783 26.014 2.404 6.229-1.601 13.14-1.022 19.693-.605 1.98.126 3.787 2.975 6.022 4.676.349 2.469.349 4.84.349 7.654m-432.428 3.663c-.286.2-.471.47-1.06 1.076-.255.498-.51.997-1.408 1.688-11.329 10.36-17.422 23.775-22.694 38.426-.85 1.796-1.685 3.599-2.55 5.387-6.317 13.039-10.338 27.336-20.99 37.91 4.72 5.907 13.675 6.741 19.884.657 6.554-6.422 11.919-14.056 18.139-21.565-9.616-2.044-12.96-5.307-12.85-11.658.09-5.147 3.498-10.09 7.856-10.015 2.84.05 6.287 1.244 8.289 3.155 1.968 1.878 2.454 5.309 3.588 8.053 5.758-7.13 11.492-14.23 17.812-21.64 3.965-3.95 8.36-7.39 10.194-13.192 2.048-6.482 4.887-12.718 7.46-19.028 3.24-7.945 6.56-15.858 10.434-25.205-17.59 3.578-29.737 13.13-41.104 24.948-.28.2-.462.468-1 1.003M164.024 73.023l-.366.206c-.265.19-.396.449-.891 1.264-33.164 46.986-38.814 96.944-14.123 149.044 17.9 37.769 48.355 62.926 86.367 79.35 1.815.785 3.519 1.827 5.274 2.749l-.77 1.764c-3.376-1.27-6.914-2.224-10.096-3.867-9.155-4.726-17.837-10.523-27.307-14.447-16.132-6.686-32.846-6.7-49.243-.516-23.507 8.867-38.026 26.46-45.636 49.748-6.92 21.177-12.41 42.822-19.343 63.994-2.809 8.58-7.219 16.788-11.918 24.55-4.228 6.98-11.396 10.098-19.662 9.756-15.741-.65-31.142-2.76-45.25-10.619-1.721-.959-4.291-.394-6.468-.536.388 2.3.012 5.236 1.302 6.782 4.348 5.21 9.288 9.925 14.3 15.43 5.126 4.087 10.177 8.273 15.445 12.165.933.69 2.996.63 4.147.088 2.866-1.349 5.507-3.175 8.954-4.72 2.017.646 4.035 1.292 6.389 2.559 1.59 3.186 3.178 6.373 4.986 9.998 15.841 2.842 44.135-12.447 49.995-27.584-7.105-.1-10.25-2.144-10.754-6.986-.426-4.11 2.389-7.737 6.68-8.607 4.329-.878 7.602 1.743 9.903 8.605l8.53-17.198c-9.175-5.15-12.19-10.066-9.659-16.136 1.028-2.464 2.887-5.573 5.086-6.347 4.256-1.497 9.022-1.547 14.265-2.295l9.902-20.839c-9.774-.652-14.242-3.548-14.714-9.25-.359-4.346 3.407-9.409 8.08-9.955 2.667-.312 6.1-.274 8.074 1.15 2.798 2.018 4.568 5.46 6.84 8.374 10.26-10.358 23.531-13.214 38.341-10.866 1.097.174 2.419.123 3.396-.334 5.7-2.669 11.327-5.49 17.595-8.638l13.904-8.767 1.118 1.434c-2.9 2.49-5.472 5.591-8.762 7.355-9.223 4.945-18.642 9.559-28.17 13.893-11.531 5.246-20.323 12.734-24.927 25.04-6.232 16.66-13.032 33.11-19.817 49.557-6.26 15.177-10.985 31.182-22.35 43.749-13.206 14.605-27.294 27.784-47.767 31.586-4.472.83-8.7 3.232-12.884 5.238-1.772.85-3.137 2.547-4.687 3.859l.33 1.828c3.439.477 6.879.953 10.954 1.962 52.132 3.133 77.643-16.399 96.389-57.324-5.998-1.45-7.569-5.823-6.937-11.912.67-1.076 1.34-2.151 2.704-3.371 5.148-3.52 8.805-.283 12.304 3.16l14.523-19.938c-4.032-1.862-7.685-3.548-11.588-5.964-2.163-4.216-2.921-8.445-.076-12.686 3.229-4.811 7.494-5.946 15.429-3.568l6.792 9.774 20.153-17.717c-4.221-3.323-4.286-7.483-1.315-12.036 0 0 .068.067.843-.043 6.233-1.991 7.014-1.596 11.72 5.946 4.452-1.099 8.952-2.062 13.343-3.387 1.225-.37 2.594-1.608 3.096-2.79 2.193-5.158 4.091-10.441 6.577-16.208l8.564-24.084 2.084.666c-.929 3.339-1.596 6.778-2.827 10.002-13.503 35.367-26.575 70.913-40.863 105.963-8.173 20.049-19.626 38.6-33.073 55.614-11.081 14.021-23.778 26.22-43.57 26.434-3.392.037-4.01 2.769-1.77 4.743 2.108 1.858 5.163 2.64 8.548 4.24 3.919.627 7.83 1.731 11.76 1.805 21.619.406 38.173-10.52 53.943-24.35-1.755-1.368-3.163-2.465-4.626-4.424-.187-6.7.747-7.794 7.763-8.008l5.72 4.373c3.329-4.12 7.143-8.839 11.548-13.583l1.687-1.181-.774-.82c-.54.626-1.08 1.251-2.472 1.91-2.952-.646-5.905-1.293-9.155-2.708-2.044-3.839-2.294-7.697.562-11.173 2.365-2.88 5.586-3.314 9.564-1.772l5.32 9.962c1.554-1.996 3.732-4.596 5.638-7.381.487-.712.56-2.37.065-2.985-3.243-4.034-2.548-8.272-1.157-12.673 0 0 .095.029.734-.24 3.369-3.12 7.168-4.59 11.85-3.537 1.01.227 2.798-.199 3.301-.947 6.358-9.45 12.545-19.016 18.366-27.924-4.06-1.709-7.575-3.188-11.38-5.32-3.326-4.829-3.741-9.847-.468-14.784 3.262-4.92 8.075-5.797 14.045-4.013l8.366 5.364c8.199-15.008 17.279-32.294 21.682-51.526.808-3.532-.15-7.468-.28-12.131v-10.21q.894-.03 1.786-.063c.316.822.829 1.623.917 2.468.718 6.931.992 13.928 2.09 20.795 3.328 20.83 7.844 41.38 15.842 61.771 8.662 24.975 20.388 48.18 39.152 68.901-.165-7.777 3.079-11.637 9.698-13.383 6.293.758 9.852 4.236 10.304 11.315-.905 6.137-5.389 8.52-12.006 9.982l13.922 9.611c2.283-6.48 6.497-8.948 12.747-9.135 2.426 1.635 4.851 3.27 7.355 5.67.78 3.623 1.562 7.245 2.673 12.393 9.918 1.15 20.864 2.634 31.858 3.51 2.214.177 4.61-1.955 6.923-3.022a1486 1486 0 0 1-3.697-7.38c-4.34-3.008-8.614-6.12-13.04-8.999-5.378-3.498-11.471-6.135-16.218-10.32-10.912-9.62-18.374-21.964-24.19-35.146-17.87-40.507-21.99-83.675-23.99-127.207-.056-1.22.58-2.47.893-3.705l1.392.143c.416 4.333.831 8.666 1.129 13.92.41 6.951.764 13.906 1.285 20.848.087 1.164.624 2.994 1.417 3.296 8.09 3.082 16.275 5.912 25.404 9.156-2.847-8.706-2.04-13.057 2.293-15.81 3.66-2.324 7.45-2.148 10.536.843 5.765 5.587 3.446 11.12-.275 15.312 9.068 2.894 18.15 5.792 27.53 9.114.318.112.635.224 1.036.848.277.195.554.39.993 1.056.174.298.418.517.96 1.31l16.99 32.461c.451-4.721 2.162-7.906 6.025-9.764 4.372-2.103 7.137.854 10.09 3.86 0 0 .153.438.005 1.173 1.42 7.83-2.42 11.671-11.187 10.567l-1.31-.72c.1.483.2.967.562 2.1 3.738 5.56 7.475 11.12 11.208 16.67 9.77-6.616 11.775-7.55 15.22-4.646 2.121 1.79 4.044 5.23 3.983 7.883-.108 4.681-3.835 7.239-8.956 8.13 16.527 19.502 36.995 26.621 62.342 23.264 5.758-.665 11.539-1.182 17.255-2.103 1.38-.223 3.018-1.561 3.613-2.823.3-.637-1.238-2.563-2.34-3.356-2.552-1.835-5.25-3.523-8.058-4.935-7.268-3.655-15.119-6.38-21.865-10.806-28.24-18.523-43.146-45.808-49.45-78.254-1.483-7.63-4.337-14.202-9.688-19.786-9.097-9.495-20.308-15.74-32.583-19.646-12.63-4.019-25.689-6.668-38.498-10.142-7.777-2.11-15.128-5.223-20.565-11.56-1.063-1.24-1.794-2.767-2.678-4.161l1.19-1.206c5.903 6.066 12.045 11.722 21.174 13.626 4.173 1.1 8.3 2.439 12.53 3.255 17.247 3.328 34.03 7.94 48.99 17.556 11.253 7.233 20.167 16.323 22.868 30.127.272 1.39 1.118 2.724 1.912 3.944 6.554 10.066 15.746 17.21 26.384 22.282 8.72 4.158 17.903 7.344 26.882 10.961-.654-5.215.21-8.796 4.214-9.7 2.642-.595 7.535.122 8.276 1.714 1.238 2.66-.04 6.49-.295 10.368 6.398.703 14.139 1.552 22.792 2.553 6.985.057 13.989.45 20.953.092 10.765-.553 18.376-6.362 23.224-15.732 3.98-7.692.938-12.888-7.774-12.872-4.925.009-9.983.805-14.74 2.118-8.297 2.292-16.14 1.444-23.858-1.894-10.824-4.683-19.241-12.506-26.67-21.354-20.37-24.264-34.193-52.225-45.331-81.637-4.662-12.309-13.485-18.074-26.142-14.823-11.03 2.833-21.707 7.231-32.31 11.507-14.828 5.98-29.288 6.949-43.79-.893-1.32-.714-3.72-.227-5.29.455-8.379 3.64-16.63 7.572-24.984 11.27-1.432.634-3.149.627-4.734.916l-.456-1.5c1.506-.728 3.035-1.414 4.516-2.19 13.37-7.012 27.342-13.102 39.955-21.284 18.746-12.16 34.068-28.134 45.98-48.045.17-.645.34-1.289.44-1.924 0 0 .048.053.725-.128 18.447-31.231 24.768-64.739 17.658-100.325-8.624-43.168-33.074-75.824-69.498-99.52C373.048 8.125 329.1-.684 282.178 5.851c-44.85 6.247-82.837 25.757-112.73 60.186-1.181 1.36-1.82 3.192-2.603 4.925 0 0 .115-.114-.476-.591-.474.54-.947 1.08-1.364 1.633 0 0-.001-.059-.5.127-.161.306-.323.613-.481.892M457.078 463.37c-.33-.483-.66-.965-1.105-2.14l-17.93-33.13c-4.605 7.44-8.699 8.718-17.35 5.034-.925-1.651-1.848-3.302-2.75-5.589-.307-.509-.614-1.019-.94-2.308 1.665-3.085 3.33-6.17 5.8-9.368l10.518-1.069c-1.046-3.103-2.175-6.455-3.267-10.64-.066-4.909-1.15-7.98-7.352-8.707-14.324-1.676-28.505-4.528-41.903-10.276-.355-.153-.904.146-1.203.204.207 26.632 7.305 50.431 27.205 69.368 4.406-9.058 11.132-8.533 16.23-1.895.155 1.005.309 2.009.163 3.742l-7.355 9.663c5.051 3.787 11.078 8.305 17.471 13.385 16.307 12.288 34.606 16.677 56.188 13.844-13.702-7.17-23.734-16.631-31.577-29.048-.3-.152-.601-.304-.843-1.07m-172.51-25.745c1.004-6.032-.527-9.806-4.758-11.74-3.722-1.703-6.84-.57-9.382 2.266-3.605 4.024-2.895 10.477 1.35 13.682 4.187 3.16 8.865 1.83 12.79-4.208m-94.114-28.678c-5.676-2.79-10.702-1.417-12.835 3.506-1.844 4.256.31 9.156 4.844 10.919 3.943 1.532 7.262.309 9.682-2.86 2.963-3.882 2.411-7.695-1.691-11.565m-59.91-14.006c-6.689-1.729-12.605 1.342-13.506 7.01-.845 5.324 2.745 9.459 9.06 10.056 1.38-3.403 2.958-6.85 4.155-10.427.67-1.998.708-4.209.292-6.639m295.49 37.503c5.436.069 8.572-2.067 9.024-6.349.45-4.254-1.547-7.089-5.614-8.201-4.156-1.137-7.196.657-8.934 4.415-1.82 3.934-.138 7.202 5.523 10.135m-291.148-77.099c-3.177 2.914-3.873 6.184-.83 9.496 2.935 3.195 6.648 3.6 10.356 1.495 3.019-1.715 4.414-4.473 3.208-7.97-1.25-3.626-5.542-5.5-9.862-4.423-.78.194-1.493.662-2.872 1.402m251.219 145.19c-2.997-2.752-6.27-3.085-9.386-.483-2.623 2.192-3.577 5.11-2.027 8.466 1.724 3.732 5.506 5.332 8.994 3.799 4.477-1.968 5.496-5.835 2.419-11.782m-202.192-24.81c3.138 2.338 5.962 1.67 8.203-1.208 2.648-3.402 2.904-7.35-.127-10.364-1.5-1.491-4.858-2.462-6.815-1.856-3.787 1.173-4.672 4.89-4.039 8.579.26 1.517 1.444 2.875 2.778 4.85m216.786 54.11 10.514 3.553c1.41-7.079-.979-11.94-5.84-13.168-4.229-1.068-7.892 1.782-9.28 7.392 1.28.61 2.6 1.24 4.606 2.223m6.703-142.848c4.231 3.013 8.07 2.995 9.457-.82.892-2.453.384-6.168-.989-8.398-.791-1.285-5.059-1.736-6.873-.814-3.813 1.938-4.058 5.64-1.595 10.032m89.517 73.797c-2.547-5.131-6.776-6.484-9.273-2.677-1.045 1.594-1.265 4.582-.462 6.272.677 1.423 3.931 3.052 5.058 2.516 1.981-.943 3.21-3.47 4.677-6.111M46.946 458.27l-5.558 3.914.454 1.485 13.464 4.286c.595-6.622-1.305-8.839-8.36-9.685m425.702-30.253c-1.115.908-3.19 1.848-3.162 2.72.082 2.517.457 5.42 1.872 7.307.585.781 5.55-.072 5.988-1.182.847-2.146.15-5.066-.468-7.524-.182-.727-2.241-.982-4.23-1.321m-244.125 77.296c2.977 1.91 5.822 1.217 6.97-1.778.733-1.91.285-5.074-.944-6.664-.87-1.126-4.366-1.385-5.918-.566-2.777 1.464-3.212 4.397-1.616 7.313.235.428.592.788 1.508 1.695m-122.518-77.85c-1.23 2.051-3.047 4-3.43 6.2-.173 1 2.429 3.423 3.885 3.52 1.72.117 4.197-1.137 5.218-2.59 2.139-3.044-.102-6.09-5.673-7.13m54.601 23.359c-.13 3.405 1.14 6.255 4.785 5.948 1.655-.14 4.242-2.63 4.357-4.203.139-1.907-1.405-4.834-3.086-5.777-2.792-1.566-4.829.543-6.056 4.032m255.6 9.967c3.667-1.16 5.387-3.847 3.548-7.122-.864-1.537-4.077-2.63-6.026-2.38-1.35.173-3.663 3.542-3.252 4.508.86 2.024 3.235 3.403 5.73 4.994m-165.53 19.03c-5.112 3.99-5.47 6.874-1.048 11.66l9.19-12.648c-3.423.27-5.448.43-8.142.988m-30.644-84.513c1.809-.83 3.86-1.388 5.281-2.654.442-.392-.443-3.465-1.406-3.95-1.274-.643-4.514-.28-4.648.236-.482 1.863-.017 3.972.773 6.368m333.998 29.065c2.22-.073 4.455-.04 6.64-.355.263-.038.644-2.706.306-2.882-1.598-.833-3.589-1.904-5.116-1.538-1.043.25-1.554 2.724-1.83 4.775m-336.2 96.74c-1.481.562-3.117.916-4.34 1.826-.322.24.304 2.633 1.102 3.243.768.588 3.25.457 3.368.104.483-1.45.353-3.104-.13-5.173"/><path fill="" d="M1 432.469c10.705 12.553 22.058 24.734 37.392 32.649 19.419 10.022 37.858 7.924 55.632-3.686 17.637-11.52 27.138-29.042 35.072-47.842 6.217-14.734 12.435-29.572 20.148-43.538 7.594-13.75 21.122-18.066 37.366-18.047-4.689 3.119-8.511 5.633-12.303 8.192-7.25 4.891-10.097 12.766-13.253 20.267-10.81 25.698-21.275 51.541-32.084 77.24-4.438 10.554-12.809 18.207-21.03 25.678-8.745 7.947-18.504 14.477-30.303 17.426-5.408 1.352-10.635 3.43-15.926 5.234-.907.31-1.997.68-2.53 1.383-1.835 2.419-3.462 4.996-5.168 7.514 2.595 1.689 5.039 4.52 7.808 4.886 22.866 3.024 45.147 1.435 65.974-9.781 12.636-6.805 22.506-16.342 29.585-28.84 4.806-8.487 9.806-16.863 14.72-25.288q.9.465 1.799.934c-6.286 12.526-12.542 25.068-18.906 37.555-.575 1.128-1.776 1.978-2.787 2.838-4.545 3.864-4.08 6.595 1.12 9.85 9.947 6.23 21.084.752 27.28-7.321 10.844-14.131 21.269-28.584 32.005-42.8 2.346-3.107 5.262-5.785 8.765-8.33-1.665 4.17-3.164 8.413-5.021 12.494-9.107 20.013-20.554 38.71-33.674 56.255-7.368 9.852-17.392 17.257-28.853 22.09-3.316 1.4-7.42.81-11.059 1.61-2.027.445-5.123 1.564-5.453 2.931-.523 2.167.204 5.292 1.579 7.134 3.59 4.813 9.301 5.44 14.967 6.462C103.08 558 52.16 558 1 558z"/><path fill="#E50012" d="M54.792 457.146c-2.017-.646-4.035-1.292-6.645-2.275-9.813-2.824-19.032-5.31-28.251-7.797-4.714-4.904-9.654-9.62-14.002-14.829-1.29-1.546-.914-4.483-1.302-6.782 2.177.142 4.747-.423 6.468.536 14.108 7.859 29.509 9.969 45.25 10.62 8.266.341 15.434-2.777 19.662-9.758 4.7-7.76 9.11-15.97 11.918-24.549 6.933-21.172 12.423-42.817 19.343-63.994 7.61-23.288 22.13-40.881 45.636-49.748 16.397-6.184 33.111-6.17 49.243.516 9.47 3.924 18.152 9.72 27.307 14.447 3.182 1.643 6.72 2.597 10.095 3.867l.771-1.764c-1.755-.922-3.46-1.964-5.274-2.748-38.012-16.425-68.467-41.582-86.367-79.351-24.691-52.1-19.041-102.058 14.545-149.42.644-.574.79-.818.859-1.108 0 0-.024.014.215-.079.406-.39.574-.687.741-.985 0 0 0 .059.296.072.75-.38 1.205-.775 1.66-1.17 0 0-.115.115.209.094 7.583-4.368 14.658-9.064 22.134-12.998 26.887-14.146 55.476-22.698 85.71-26.134 19.608-2.23 39.097-2.003 58.424 1.57 37.194 6.875 68.68 24.114 93.507 52.99 16.432 19.113 29.665 40.064 36.453 64.555 5.83 21.037 7.417 42.424 3.83 64.071q-1.584 9.54-3.17 19.077s-.049-.053-.313.119c-.416.844-.568 1.516-.72 2.188-11.367 19.475-26.69 35.449-45.435 47.61-12.613 8.181-26.584 14.27-39.955 21.282-1.481.777-3.01 1.463-4.516 2.19l.456 1.501c1.585-.29 3.302-.282 4.734-.917 8.354-3.697 16.605-7.628 24.983-11.269 1.572-.682 3.972-1.169 5.292-.455 14.5 7.842 28.961 6.873 43.79.893 10.602-4.276 21.278-8.674 32.31-11.507 12.656-3.251 21.48 2.514 26.14 14.823 11.14 29.412 24.961 57.373 45.333 81.637 7.428 8.848 15.845 16.671 26.67 21.354 7.717 3.338 15.56 4.186 23.857 1.894 4.757-1.313 9.815-2.109 14.74-2.118 8.712-.016 11.754 5.18 7.774 12.872-4.848 9.37-12.46 15.179-23.224 15.732-6.964.357-13.968-.035-21.492-.485-3.692-2.501-6.899-4.533-9.99-6.73-22.518-16-41.076-36.13-58.187-57.506-12.192-15.23-22.993-31.573-34.424-47.413-2.694-3.734-6.289-6.205-10.959-5.684-4.553.508-9.266 1.185-13.473 2.874-9.846 3.952-19.44 8.538-29.12 12.901-6.138 2.767-12.25 5.593-18.374 8.392-8.616-1.405-14.758-7.061-20.66-13.127l-1.19 1.206c.883 1.394 1.614 2.92 2.677 4.16 5.437 6.338 12.788 9.452 20.565 11.56 12.81 3.475 25.869 6.124 38.498 10.143 12.275 3.906 23.486 10.151 32.583 19.646 5.35 5.584 8.205 12.156 9.688 19.786 6.304 32.446 21.21 59.731 49.45 78.254 6.746 4.425 14.597 7.151 21.865 10.806 2.808 1.412 5.506 3.1 8.058 4.935 1.102.793 2.64 2.719 2.34 3.356-.595 1.262-2.232 2.6-3.613 2.823-5.716.921-11.497 1.438-17.795 1.711a3110 3110 0 0 0-28.423-16.817c-.809-.472-1.866-.517-2.916-1.085-1.74-1.49-3.373-2.657-5.055-4.157a90 90 0 0 0-5.327-6.192c-6.788-7.174-13.86-14.1-20.311-21.563-3.575-4.137-6.128-9.156-9.142-13.777 0 0-.152-.438-.182-1.07-2.86-9.367-5.395-18.214-8.64-26.792-1.749-4.62-4.717-8.778-7.23-13.493-1.746-6.523-6.598-8.537-12.207-9.985-2.955-1.753-5.727-3.682-8.791-4.458-9.733-2.465-19.668-4.159-29.352-6.786-12.725-3.452-25.285-7.508-37.917-11.305l-1.247-12.999-1.392-.143c-.313 1.235-.949 2.486-.893 3.705 2 43.532 6.12 86.7 23.99 127.207 5.816 13.182 13.278 25.526 24.19 35.146 4.747 4.185 10.84 6.822 16.218 10.32 4.426 2.879 8.7 5.99 12.998 9.647-1.402 1.47-2.812 3.066-4.113 2.982-5.568-.356-11.331-.466-16.591-2.076-5.938-1.818-11.413-5.148-17.089-7.82-2.426-1.635-4.851-3.27-7.657-5.359-4.94-3.881-9.502-7.308-14.063-10.735-.672-6.348-4.23-9.826-11.007-10.954-5.216-4.93-9.948-9.491-14.474-14.345 6.24-5.846 7.122-12.693 2.438-17.633-4.35-4.588-10.41-4.181-16.464.942-4.047-4.893-7.775-9.65-11.517-14.397-2.762-3.503-5.544-6.991-8.317-10.487-8.031-19.619-12.547-40.17-15.876-60.999-1.097-6.867-1.37-13.864-2.09-20.795-.087-.845-.6-1.646-.916-2.468l-1.786.064c0 3.403 0 6.806-.323 10.85-4.905 9.986-9.287 19.435-14.12 28.648-5.06 9.643-10.554 19.059-15.857 28.574-5.438-1.354-10.251-.476-13.513 4.443-3.273 4.937-2.858 9.955.433 15.427-7.195 11.522-14.385 22.381-21.47 33.308-.741 1.143-.862 2.688-1.271 4.046 0 0-.095-.03-.4-.03-3.561 4.239-6.818 8.48-10.075 12.72-3.464-1.184-6.685-.75-9.05 2.13-2.856 3.476-2.606 7.334-.73 11.725-2.44 4.056-4.71 7.56-6.981 11.064-6.421.607-7.355 1.701-7.475 8.853-.87.785-1.538 1.015-1.98 1.467-13.328 13.657-29.685 20.534-48.556 22.106-3.707.309-7.323 1.704-10.98 2.599-2.639-1.255-5.694-2.037-7.802-3.895-2.24-1.974-1.622-4.706 1.77-4.743 19.792-.215 32.489-12.413 43.57-26.434 13.447-17.015 24.9-35.565 33.073-55.614 14.288-35.05 27.36-70.596 40.863-105.963 1.231-3.224 1.898-6.663 2.827-10.002l-2.084-.666c-2.855 8.028-5.71 16.056-9.195 24.377-6.732 2.302-13.08 3.78-18.864 6.468-5.638 2.619-10.7 6.475-16.016 9.788 0 0-.068-.067-.405-.077-10.293 4.569-18.383 11.568-25.72 19.546-7.508-1.935-11.773-.8-15.002 4.011-2.845 4.24-2.087 8.47-.173 13.062-2.06 2.2-4.232 3.786-5.61 5.892-3.546 5.417-6.74 11.063-10.074 16.618-.67 1.076-1.34 2.151-2.483 3.59-6.13 12.296-12.089 24.1-17.332 36.214-3.125 7.22-6.942 13.446-13.682 17.818-11.663 7.565-24.855 9.615-38.225 11.287-6.812.851-13.585 2.005-20.376 3.022l-10.319-1.43-.33-1.828c1.551-1.312 2.916-3.009 4.688-3.859 4.183-2.006 8.412-4.408 12.884-5.238 20.473-3.802 34.561-16.981 47.768-31.586 11.364-12.567 16.089-28.572 22.35-43.749 6.784-16.446 13.584-32.898 19.816-49.557 4.604-12.306 13.396-19.794 24.927-25.04 9.528-4.334 18.947-8.948 28.17-13.893 3.29-1.764 5.862-4.865 8.762-7.355l-1.118-1.434c-4.635 2.923-9.27 5.845-14.442 8.632-13.438-3.48-26.51-5.246-39.874-4.798-6.49.218-12.995-.053-19.488.103-11.573.277-20.839 4.968-27.263 14.789-8.446 12.911-11.369 27.827-15.634 42.312-4.584 15.565-9.445 31.1-15.288 46.223-3.798 9.829-11.247 17.092-22.467 18.293-5.364.574-10.882-.288-16.33-.5m194.713-308.265c-6.126-3.553-12.795-4.353-19.733-4.048-13.638.598-26.169 10.654-29.394 23.709-3.19 12.914 3.036 26.29 15.477 33.251 15.646 8.754 36.807 3.501 45.745-11.354 8.73-14.511 4.07-31.342-12.095-41.558m146.16 46.255c11.894-14.249 9.857-33.12-4.607-43.824-7.674-5.679-16.28-7.176-25.52-6.34-13.385 1.213-25.167 11.812-27.73 24.956-2.547 13.071 3.97 25.837 16.438 32.196 13.855 7.066 29.048 4.664 41.418-6.988M267.81 237.133c-.833 10.508 1.93 19.769 11.122 25.587 11.893 7.53 24.854 7.558 37.98 3.396.574-.181.95-.989 2.294-2.472l-23.053 2.618c15.996-14.671 18.466-29.183 7.727-45.564 4.345 2.106 8.706 4.39 12.164 7.637 3.491 3.277 6.087 7.507 9.075 11.32l1.137-.562c-.573-1.689-.88-3.533-1.76-5.043-5.584-9.573-14.203-15.207-24.577-18.387-16.496-5.056-29.76 3.517-32.109 21.47"/><path fill="#E95803" d="M464.395 233.981c.718-6.268 1.777-12.627 2.831-18.986 3.588-21.647 2-43.034-3.83-64.07-6.787-24.492-20.02-45.443-36.452-64.555-24.827-28.877-56.313-46.116-93.507-52.992-19.327-3.572-38.816-3.798-58.425-1.57-30.233 3.437-58.822 11.989-85.709 26.135-7.476 3.934-14.55 8.63-22.187 12.937.513-1.651 1.15-3.483 2.331-4.843 29.894-34.43 67.88-53.939 112.731-60.186 46.922-6.536 90.87 2.274 130.716 28.195 36.424 23.696 60.874 56.352 69.498 99.52 7.11 35.586.789 69.094-17.997 100.415"/><path fill="#AC0003" d="M410.21 338.5c5.868-3.05 11.98-5.875 18.118-8.642 9.68-4.363 19.274-8.949 29.12-12.901 4.207-1.69 8.92-2.366 13.473-2.874 4.67-.52 8.265 1.95 10.96 5.684 11.43 15.84 22.231 32.183 34.423 47.413 17.11 21.376 35.669 41.506 58.188 57.507 3.09 2.196 6.297 4.228 9.532 6.653-7.657-.532-15.398-1.381-21.796-2.084.254-3.878 1.533-7.709.295-10.368-.74-1.592-5.634-2.31-8.276-1.713-4.004.903-4.868 4.484-4.214 9.699-8.979-3.617-18.162-6.803-26.882-10.96-10.638-5.074-19.83-12.217-26.384-22.283-.794-1.22-1.64-2.555-1.912-3.944-2.701-13.804-11.615-22.894-22.868-30.127-14.96-9.615-31.743-14.228-48.99-17.556-4.23-.816-8.357-2.156-12.787-3.504m60.665 8.166c6.166-3.2 9.014-7.896 7.825-12.9-1.457-6.134-7.8-10.377-14.453-9.67-6.325.673-11.387 5.922-11.38 11.803.009 6.237 4.766 11.042 11.904 11.715 1.755.165 3.582-.44 6.104-.948m49.79 52.825c1.59-2.257 3.711-4.314 4.654-6.816 1.644-4.362.372-8.471-2.874-11.845-2.963-3.08-6.448-4.464-10.756-3.172-6.478 1.942-10.172 8.952-8.021 15.347 2.447 7.277 8.481 9.826 16.996 6.486m-32.112-41.484c.204 5.325 3.228 8.7 7.342 7.21 2.304-.834 4.86-3.614 5.35-5.93.352-1.659-2.11-4.956-4.072-5.834-3.543-1.585-6.805-.14-8.62 4.554m45.942 54.834c1.112 3.177 3.378 5.493 6.657 4.554 1.933-.554 4.11-2.922 4.701-4.912 1.083-3.645-.754-6.579-4.678-7.408-3.775-.798-6.317 1.937-6.68 7.766"/><path fill="#AD0003" d="M54.96 457.456c5.28-.098 10.799.764 16.163.19 11.22-1.201 18.67-8.464 22.467-18.293 5.843-15.122 10.704-30.658 15.288-46.223 4.265-14.485 7.188-29.4 15.634-42.312 6.424-9.82 15.69-14.512 27.263-14.79 6.493-.155 12.998.116 19.488-.102 13.363-.448 26.436 1.318 39.566 4.987-5.422 3.094-11.05 5.915-16.749 8.584-.977.457-2.299.508-3.396.334-14.81-2.348-28.081.508-38.342 10.866-2.271-2.914-4.041-6.356-6.839-8.373-1.975-1.425-5.407-1.463-8.075-1.151-4.672.546-8.438 5.609-8.079 9.956.472 5.701 4.94 8.597 14.714 9.25l-9.902 20.838c-5.243.748-10.009.798-14.265 2.295-2.2.774-4.058 3.883-5.086 6.347-2.531 6.07.484 10.987 9.66 16.136l-8.531 17.198c-2.301-6.862-5.574-9.483-9.903-8.605-4.291.87-7.106 4.497-6.68 8.607.503 4.842 3.649 6.886 10.754 6.986-5.86 15.137-34.154 30.426-49.995 27.584a3606 3606 0 0 0-5.155-10.309"/><path fill="#700" d="M422.927 452.099c-4.994-5.884-11.72-6.409-16.126 2.649-19.9-18.937-26.998-42.736-27.205-69.368.299-.058.848-.357 1.203-.204 13.398 5.748 27.579 8.6 41.903 10.276 6.203.726 7.286 3.798 6.961 9.128-6.088 1.913-6.837 6.684-7.665 11.402-1.665 3.085-3.33 6.17-5.263 9.436-.404-.12-.551-.417-.672-.724-1.425-3.637-4.498-5.614-7.827-4.3-2.474.976-5.535 4.047-5.676 6.348-.14 2.294 2.533 5.828 4.87 6.951 3.34 1.605 6.775.06 8.564-3.778.336-.721 1.27-1.164 1.927-1.735.924 1.65 1.847 3.302 2.931 5.691.799 6.568 1.437 12.398 2.075 18.228m-33.509-48.713c-1.204 7.697 1.685 12.79 7.708 13.588 5.145.68 9.77-2.467 11.225-7.64 1.196-4.249-1.073-8.799-5.475-10.98-4.837-2.395-9.5-.86-13.458 5.032"/><path fill="#AA0003" d="M422.98 452.476c-.691-6.207-1.33-12.037-1.95-18.342 8.314 2.683 12.408 1.404 17.014-6.035 6.032 11.146 11.98 22.139 17.9 33.557-.027.427-.198.59-.53.5-1.306-.718-2.22-1.465-3.259-1.951-4.43-2.075-8.535-1.246-11.84 2.15-2.99 3.072-3.992 6.985-1.984 10.966 2.002 3.971 5.236 6.175 10.033 5.862 6.717-.437 9.749-4.778 9.5-14.072l.171-.145c7.729 11.89 17.761 21.351 31.463 28.521-21.582 2.833-39.88-1.556-56.341-14.51-1.236-3.218-2.318-5.77-3.4-8.322l-6.263-14.789a786 786 0 0 1-.515-3.39"/><path fill="#700" d="M203.023 416.014c10.916-11.616 23.063-21.168 40.653-24.746-3.874 9.347-7.193 17.26-10.433 25.205-2.574 6.31-5.413 12.546-7.46 19.028-1.834 5.803-6.23 9.242-10.532 12.977-2.16-4.044-5.657-3.805-8.863-3.287-9.052 1.463-17.372 4.774-24.672 10.498-1.354 1.062-3.175 1.53-4.78 2.271 4.746-14.202 10.84-27.618 22.581-38 .414-.022.598.125.56.56-.082 1.593-.097 2.752-.173 3.907-.269 4.063 1.045 7.586 5.16 8.494 2.566.565 6.11.316 8.133-1.107 3.195-2.249 4.297-6.056 2.91-10.186-1.908-5.683-4.63-6.904-13.12-5.645.01.012.036.031.036.031"/><path fill="#AC0003" d="M376.868 356.49c12.69 3.336 25.251 7.392 37.976 10.844 9.684 2.627 19.619 4.32 29.352 6.786 3.064.776 5.836 2.705 8.488 4.656-10.054 3.92-12.39 10.174-7.668 20.215l-.316.294-27.231-8.69c3.72-4.192 6.04-9.725.275-15.312-3.086-2.991-6.876-3.167-10.536-.842-4.332 2.752-5.14 7.103-2.293 15.81-9.13-3.245-17.315-6.075-25.404-9.157-.793-.302-1.33-2.132-1.417-3.296-.521-6.942-.875-13.897-1.226-21.308"/><path fill="#AA0003" d="M176.673 458.184c1.868-.966 3.689-1.433 5.043-2.495 7.3-5.724 15.62-9.035 24.672-10.498 3.206-.518 6.703-.757 8.57 3.443-5.69 7.47-11.424 14.57-17.182 21.699-1.134-2.744-1.62-6.175-3.588-8.053-2.002-1.91-5.45-3.105-8.29-3.155-4.357-.076-7.766 4.868-7.855 10.015-.11 6.351 3.234 9.614 12.85 11.658-6.22 7.51-11.585 15.143-18.139 21.565-6.209 6.084-15.164 5.25-19.884-.657 10.652-10.574 14.673-24.871 20.99-37.91.865-1.788 1.7-3.591 2.813-5.612"/><path fill="#AD0003" d="M521.19 475.931c.941.244 1.998.29 2.807.761 9.316 5.438 18.595 10.94 27.979 16.763-24.363 3.803-44.83-3.316-61.358-22.819 5.121-.89 8.848-3.448 8.956-8.13.061-2.651-1.862-6.093-3.984-7.882-3.444-2.904-5.449-1.97-15.22 4.647-3.732-5.552-7.47-11.111-11.062-17.043.329-.408.512-.443.695-.48 8.676.576 12.516-3.264 11.169-11.462 3.088 4.253 5.641 9.272 9.216 13.409 6.45 7.463 13.523 14.389 20.31 21.563 1.807 1.909 3.521 3.904 4.952 6.296-5.453 1.555-7.784 4.393-6.758 8.268.979 3.701 4.357 5.868 7.827 5.022 3.623-.884 5.515-4.656 4.47-8.913"/><path fill="#AB0003" d="M68.299 517.327c6.473-1.283 13.246-2.437 20.058-3.288 13.37-1.672 26.562-3.722 38.225-11.287 6.74-4.372 10.557-10.599 13.682-17.818 5.243-12.114 11.202-23.918 17.183-35.934-.01 5.446 1.56 9.82 7.559 11.27-18.746 40.924-44.257 60.456-96.707 57.057"/><path fill="#AD0003" d="M465.29 388.911c2.417 4.367 5.385 8.525 7.133 13.145 3.246 8.578 5.78 17.425 8.587 26.566-2.87-2.148-5.635-5.105-10.007-3.002-3.863 1.858-5.574 5.043-6.025 9.764-5.664-10.82-11.327-21.64-16.926-33.007.183-.695.3-.843.809-.853 11.244 1.706 15.764-1.888 16.428-12.613"/><path fill="#AA0003" d="M365.59 480.897c4.733 4.562 9.465 9.123 14.32 14.012-5.775 2.157-9.019 6.017-8.854 13.794-18.764-20.722-30.49-43.926-39.136-69.287 2.79 3.11 5.572 6.598 8.334 10.101 3.742 4.746 7.47 9.504 11.384 14.746-.28 3.159-1.504 5.962-1.058 8.47 1.246 7.013 6.128 9.44 15.01 8.164"/><path fill="#AB0003" d="M281.235 423.119c5.037-9.73 10.53-19.146 15.59-28.79 4.834-9.212 9.216-18.661 14.114-28.19.46 3.565 1.418 7.501.61 11.033-4.403 19.232-13.483 36.518-21.682 51.526-2.583-1.656-5.474-3.51-8.632-5.579m-35.768 56.875c.09-1.224.21-2.77.952-3.912 7.085-10.927 14.275-21.786 21.616-32.981 3.694 1.162 7.208 2.641 11.269 4.35-5.82 8.908-12.008 18.473-18.366 27.924-.503.748-2.29 1.174-3.3.947-4.683-1.053-8.482.416-12.17 3.672"/><path fill="#A90003" d="M149.294 552.934c3.284-1.067 6.9-2.462 10.607-2.771 18.87-1.572 35.228-8.45 48.556-22.106.442-.452 1.11-.682 2.008-1.036 1.742 1.076 3.15 2.173 4.905 3.54-15.77 13.83-32.324 24.757-53.944 24.35-3.93-.073-7.84-1.177-12.132-1.977"/><path fill="#AB0003" d="M217.45 386.023c4.928-3.258 9.991-7.114 15.629-9.733 5.785-2.688 12.132-4.166 18.624-6.203-1.615 5.209-3.513 10.492-5.706 15.65-.502 1.182-1.871 2.42-3.096 2.79-4.39 1.325-8.89 2.288-13.343 3.387-4.706-7.542-5.487-7.937-12.107-5.891m-26.299 19.746c7.123-8.2 15.213-15.2 25.543-19.74-2.671 4.535-2.606 8.695 1.615 12.018l-20.153 17.717c-2.154-3.099-4.473-6.436-7.005-9.995"/><path fill="#AA0003" d="M160.426 445.058c2.987-5.483 6.18-11.13 9.726-16.546 1.379-2.106 3.551-3.692 5.737-5.527 4.026 1.675 7.679 3.361 11.711 5.223l-14.523 19.938c-3.499-3.443-7.156-6.68-12.651-3.088"/><path fill="#A90003" d="M413.037 522.38c5.637 2.29 11.112 5.62 17.05 7.438 5.26 1.61 11.023 1.72 16.59 2.076 1.302.084 2.712-1.512 4.258-2.678 1.323 1.914 2.46 4.171 3.595 6.428-2.312 1.067-4.71 3.199-6.923 3.022-10.994-.876-21.94-2.36-31.858-3.51-1.11-5.148-1.892-8.77-2.712-12.775"/><path fill="#C996AD" d="M284.37 437.966c-3.727 5.697-8.405 7.027-12.592 3.866-4.245-3.205-4.955-9.658-1.35-13.682 2.541-2.836 5.66-3.969 9.382-2.267 4.23 1.935 5.762 5.71 4.56 12.083"/><path fill="#CB97AE" d="M190.744 409.193c3.812 3.623 4.364 7.436 1.4 11.318-2.419 3.169-5.738 4.392-9.68 2.86-4.535-1.763-6.689-6.663-4.845-10.919 2.133-4.923 7.159-6.296 13.125-3.259"/><path fill="#AA0003" d="M391.168 506.27c4.67 3.061 9.232 6.488 13.843 10.25-5.54.76-9.754 3.228-12.037 9.708l-13.922-9.61c6.617-1.462 11.1-3.846 12.116-10.349"/><path fill="#C794AB" d="M130.914 395.098c.047 2.272.009 4.483-.66 6.481-1.198 3.576-2.777 7.024-4.156 10.427-6.315-.597-9.905-4.732-9.06-10.056.9-5.668 6.817-8.739 13.876-6.852"/><path fill="#C895AC" d="M425.669 432.343c-5.296-2.833-6.979-6.1-5.158-10.035 1.738-3.758 4.778-5.552 8.934-4.415 4.067 1.112 6.064 3.947 5.614 8.201-.452 4.282-3.588 6.418-9.39 6.25m-290.466-77.199c1.062-.54 1.775-1.009 2.555-1.203 4.32-1.078 8.612.797 9.862 4.424 1.206 3.496-.19 6.254-3.208 7.969-3.708 2.105-7.421 1.7-10.356-1.495-3.043-3.312-2.347-6.582 1.147-9.695"/><path fill="#C996AD" d="M386.373 500.818c2.809 5.663 1.79 9.53-2.687 11.498-3.488 1.533-7.27-.067-8.994-3.799-1.55-3.357-.596-6.274 2.027-8.466 3.116-2.602 6.389-2.27 9.654.767m-202.746-25.365c-1.048-1.703-2.231-3.061-2.492-4.578-.633-3.69.252-7.406 4.04-8.579 1.956-.606 5.315.365 6.814 1.856 3.03 3.015 2.775 6.962.127 10.364-2.241 2.878-5.065 3.546-8.489.937"/><path fill="#A70003" d="M20.045 447.375c9.07 2.186 18.289 4.672 27.744 7.451-2.496 1.927-5.137 3.753-8.003 5.102-1.15.542-3.214.601-4.147-.088-5.268-3.892-10.32-8.078-15.594-12.465"/><path fill="#C694AA" d="M400.357 529.659a670 670 0 0 0-4.263-2.047c1.387-5.61 5.05-8.46 9.278-7.392 4.862 1.228 7.252 6.09 5.841 13.168a764 764 0 0 1-10.856-3.73"/><path fill="#700" d="M423.344 456.23c2.238 4.566 4.325 9.496 6.414 14.425 1.08 2.552 2.163 5.104 3.215 8.04-6.056-4.132-12.083-8.65-17.134-12.437 2.92-3.836 5.138-6.75 7.505-10.027"/><path fill="#A70003" d="M218.21 517.933c1.973-3.7 4.244-7.204 6.832-10.876 3.27.479 6.222 1.126 9.587 1.826.412.053.555.062.555.062l-10.957 13.558a756 756 0 0 0-6.018-4.57"/><path fill="#CA96AD" d="M407.166 386.658c-2.227-4.064-1.982-7.765 1.831-9.703 1.814-.922 6.082-.471 6.873.814 1.373 2.23 1.88 5.945.99 8.397-1.387 3.816-5.227 3.834-9.694.492"/><path fill="#AB0003" d="M234.93 492.997c3-4.42 6.257-8.66 9.87-12.878-1.138 4.38-1.833 8.62 1.41 12.653.495.614.422 2.273-.065 2.985-1.906 2.785-4.084 5.385-5.638 7.381-1.856-3.475-3.588-6.718-5.577-10.141"/><path fill="#0F0405" d="M417.932 427.862c-.669.889-1.602 1.332-1.938 2.053-1.789 3.838-5.225 5.383-8.564 3.778-2.337-1.123-5.01-4.657-4.87-6.95.14-2.302 3.202-5.373 5.676-6.35 3.33-1.313 6.402.664 7.827 4.3.12.308.268.605.681 1.115.585.717.892 1.227 1.188 2.054m-11.258-3.826c-1.985 2.214-2.25 4.69.222 6.388 1.166.801 3.74.832 4.864.048 1.076-.75 1.813-3.207 1.437-4.564-.79-2.849-3.079-3.66-6.523-1.872"/><path fill="#C693AA" d="M496.957 461.173c-1.506 2.252-2.734 4.779-4.715 5.722-1.127.536-4.381-1.093-5.058-2.516-.803-1.69-.583-4.678.462-6.272 2.497-3.808 6.726-2.454 9.311 3.066"/><path fill="#C190A6" d="M47.328 458.211c6.673.905 8.573 3.122 7.978 9.744l-13.464-4.286-.454-1.485c1.852-1.305 3.705-2.61 5.94-3.973"/><path fill="#C995AD" d="M473.043 427.95c1.594.406 3.653.661 3.835 1.388.617 2.458 1.315 5.378.468 7.524-.438 1.11-5.403 1.963-5.988 1.182-1.415-1.886-1.79-4.79-1.872-7.307-.028-.872 2.047-1.812 3.557-2.786m-244.828 77.104c-.608-.65-.965-1.01-1.2-1.437-1.596-2.916-1.16-5.85 1.616-7.313 1.552-.819 5.048-.56 5.918.566 1.229 1.59 1.677 4.753.944 6.664-1.148 2.995-3.993 3.688-7.278 1.52"/><path fill="#C391A8" d="M106.367 427.36c5.209 1.143 7.45 4.19 5.31 7.234-1.02 1.452-3.498 2.706-5.217 2.59-1.456-.098-4.058-2.521-3.884-3.521.382-2.2 2.198-4.149 3.791-6.303"/><path fill="#C593A9" d="M160.7 450.473c1.133-3.14 3.17-5.25 5.962-3.683 1.68.943 3.225 3.87 3.086 5.777-.115 1.574-2.702 4.064-4.357 4.203-3.645.307-4.914-2.543-4.69-6.297"/><path fill="#C693AA" d="M415.835 460.815c-2.124-1.617-4.499-2.996-5.36-5.02-.41-.966 1.903-4.335 3.253-4.508 1.95-.25 5.162.843 6.026 2.38 1.839 3.275.12 5.962-3.92 7.148"/><path fill="#C391A8" d="M251.01 479.62c2.36-.358 4.385-.519 7.808-.79l-9.19 12.65c-4.423-4.787-4.064-7.67 1.383-11.86"/><path fill="#A50003" d="M422.4 415.925c.426-4.661 1.175-9.432 7.244-10.93 1.502 3.35 2.631 6.701 3.677 9.804-3.877.394-7.197.732-10.92 1.126"/><path fill="#C290A7" d="M219.69 395.116c-.448-2.206-.913-4.315-.43-6.178.133-.517 3.373-.879 4.647-.237.963.486 1.848 3.559 1.406 3.951-1.421 1.266-3.472 1.823-5.622 2.464"/><path fill="#BC8CA2" d="M553.794 424.085c.512-1.765 1.023-4.238 2.066-4.489 1.527-.366 3.518.705 5.116 1.538.338.176-.043 2.844-.306 2.882-2.185.315-4.42.282-6.876.07"/><path fill="#C190A6" d="M218.12 521.356c.193 1.824.323 3.478-.16 4.928-.118.353-2.6.484-3.368-.104-.798-.61-1.424-3.004-1.102-3.243 1.223-.91 2.859-1.264 4.63-1.581"/><path fill="#150709" d="M235.055 508.866c.553-.696 1.093-1.321 1.633-1.947l.774.82c-.563.394-1.125.787-1.982 1.193-.296.013-.439.004-.425-.066"/><path fill="#100606" d="M469.957 441.484c-.137.3-.32.336-.78.42-.376-.437-.476-.92-.577-1.404.437.24.874.48 1.357.984"/><path fill="#E95803" d="M166.665 70.61c-.16.632-.615 1.026-1.394 1.401.15-.56.624-1.1 1.394-1.402"/><path fill="#AA0003" d="M456.002 462.002c.416.402.746.884 1.035 1.683-.04.317-.059.334-.329.223-.5-.627-.731-1.145-.962-1.662z"/><path fill="#700" d="M199.839 419.864c.163-.572.418-1.07.916-1.716.242-.147.217-.17.23.134-.281.803-.575 1.303-.87 1.803z"/><path fill="#E95803" d="M463.296 236.16c-.12-.453.032-1.125.484-1.974.129.468-.041 1.112-.484 1.975"/><path fill="#AD0003" d="M446.866 401.143c-.277-.196-.554-.39-.858-.855-.027-.27 0-.297.258-.262.467.293.676.552.815.887z"/><path fill="#E95803" d="M163.853 73.12c.126.179-.02.423-.415.753-.176-.195-.045-.454.415-.754"/><path fill="#AD0003" d="M447.939 402.052c-.493.078-.737-.141-.992-.674-.081-.235.062-.388.367-.416.593.112.877.263 1.155.423a85 85 0 0 1-.53.667"/><path fill="#AC0003" d="M445.967 400.032a3.5 3.5 0 0 1-1.117-.535c-.15-.212.06-.408.401-.405.48.302.619.6.758.9z"/><path fill="#AA0003" d="M457.008 463.992c.312.143.613.295.97.71.057.264-.057.361-.355.32-.414-.36-.53-.682-.645-1.003z"/><path fill="#700" d="M202.03 417.02c.08-.336.261-.604.767-.905.226-.1.2-.12.128.12-.364.408-.655.576-.934.755zm-1.023.994c.094-.325.279-.595.794-.895.229-.099.202-.118.116.117a3.6 3.6 0 0 1-.945.742s.025.023.035.036"/><path fill="#E95803" d="M164.755 72.038c.082.205-.086.502-.494.906-.08-.2.083-.507.494-.906"/><path fill="#080506" d="M249.842 149.035c15.83 10.062 20.49 26.893 11.759 41.404-8.938 14.855-30.1 20.108-45.745 11.354-12.441-6.96-18.667-20.337-15.477-33.251 3.225-13.055 15.756-23.111 29.394-23.71 6.938-.304 13.607.496 20.07 4.203m10.98 19.964.69 1.854.733-.197c-.185-1.048-.37-2.095-.69-3.858-4.462-11.239-12.892-17.455-24.704-19.011-15.49-2.041-30.13 7.25-33.646 21.08-3.538 13.922 4.316 26.998 19.81 32.893 1.506.573 3.12.857 4.796 1.305.079-.902.167-1.166.096-1.22-1.156-.874-2.306-1.762-3.509-2.57-7.644-5.132-11.705-12.326-11.132-21.488.596-9.536 5.597-16.519 14.323-20.578 11.962-5.564 24.554-1.302 33.234 11.79m-12.232 10.816c2.75-3.952 2.709-7.8-.771-11.234-3.313-3.27-8.589-3.488-12.346-.65-3.27 2.472-4.505 5.727-2.954 9.645 1.555 3.928 6.412 6.376 10.715 5.282 1.69-.43 3.182-1.641 5.356-3.043M226.918 191.3c1.487 1.231 2.836 3.076 4.515 3.452.929.208 3.507-2.153 3.404-3.159-.194-1.904-1.392-4.712-2.876-5.268-3.046-1.14-4.777 1.06-5.043 4.975"/><path fill="#080505" d="M395.416 195.396c-12.121 11.392-27.314 13.794-41.17 6.728-12.467-6.359-18.984-19.125-16.436-32.196 2.562-13.144 14.344-23.743 27.729-24.955 9.24-.837 17.846.66 25.52 6.339 14.464 10.704 16.501 29.575 4.357 44.084m3.447-25.542.446 1.867.536-.035c-.073-1.057-.145-2.114-.324-3.895-5.589-14.904-19.29-22.54-35.457-19.762-12.65 2.173-22.985 13.061-24.018 25.301-1.015 12.033 7.276 23.907 19.71 28.057 1.532.511 3.247.473 4.876.69-.589-1.46-1.384-1.965-2.17-2.48-8.98-5.887-12.828-14.235-11.244-24.78 1.43-9.521 9.187-17.025 19.235-19.306 11.088-2.517 20.73 2.126 28.41 14.343m-27.785.073c-2.393 5.246-1.56 9.097 2.525 11.678 3.912 2.471 9.35 1.898 12.3-1.498 2.85-3.279 3.214-6.882.507-10.448-3.069-4.041-8.293-4.804-12.956-1.985-.7.424-1.267 1.068-2.376 2.253m.335 17.102c-2.041.236-4.769-.215-5.907.923-.926.927-.493 4.065.391 5.624.515.908 3.473 1.366 4.69.752 2.823-1.425 3.158-4.015.826-7.3"/><path fill="#130201" d="M267.835 236.72c2.323-17.54 15.587-26.113 32.083-21.057 10.374 3.18 18.993 8.814 24.577 18.387.88 1.51 1.187 3.354 1.76 5.043l-1.137.562c-2.988-3.813-5.584-8.043-9.075-11.32-3.458-3.246-7.819-5.53-12.164-7.637 10.74 16.381 8.27 30.893-7.727 45.564l23.053-2.618c-1.344 1.483-1.72 2.29-2.293 2.472-13.127 4.162-26.088 4.134-37.981-3.396-9.191-5.818-11.955-15.079-11.096-26m7.851-12.471c-7.34 10.696-7.14 23.418.511 32.354 7.324 8.555 19.047 8.336 25.756-.696 6.457-8.693 7.025-18.204 2.389-27.793-5.899-12.2-18.561-14.057-28.656-3.865"/><path fill="#130809" d="M446.266 400.026c-.396-.333-.535-.632-.909-1.032-5.063-10.044-2.727-16.299 7.377-19.867 5.862.899 10.714 2.913 12.46 9.436-.569 11.073-5.09 14.667-16.333 12.961-.67-.3-.954-.45-1.476-.639-.443-.307-.652-.566-1.12-.86m-.828-9.45c1.345 8.03 8.228 11.576 13.696 7.012 3.156-2.633 4.484-6.458 2.4-9.716-1.625-2.537-5.082-5.06-7.958-5.363-4.271-.447-7.184 2.745-8.138 8.067"/><path fill="#150708" d="M365.797 480.605c-9.089 1.568-13.97-.86-15.217-7.873-.446-2.507.777-5.31 1.372-8.328 5.872-5.613 11.932-6.02 16.283-1.432 4.684 4.94 3.802 11.787-2.438 17.633m-8.133-2.626c5.341 1.381 9.323-.668 10.37-5.336 1.048-4.674-1.614-9.021-6.011-9.818-4.177-.757-8.808 2.3-8.672 6.711.084 2.731 2.357 5.394 4.313 8.443"/><path fill="#130303" d="M521.081 475.607c1.153 4.58-.74 8.353-4.362 9.237-3.47.846-6.848-1.32-7.827-5.022-1.026-3.875 1.305-6.713 6.808-7.935 2.008 1.063 3.64 2.23 5.381 3.72m-7.235 6.053 5.07-2.515c-.644-1.226-1.005-3-2.014-3.522-.998-.517-3.676-.054-3.824.477-.436 1.573.013 3.392.768 5.56"/><path fill="#120607" d="M470.511 346.794c-2.158.38-3.985.985-5.74.82-7.138-.673-11.895-5.478-11.903-11.715-.008-5.88 5.054-11.13 11.38-11.803 6.653-.707 12.995 3.536 14.452 9.67 1.19 5.004-1.66 9.7-8.189 13.028m-10.795-3.861c1.53.586 3.245 1.928 4.557 1.61 3.349-.81 7.086-1.707 9.554-3.852 1.56-1.355 2.02-5.26 1.382-7.584-1.162-4.235-4.939-5.972-9.255-6.064-4.351-.092-7.83 1.744-9.598 5.738-1.667 3.763-.437 7.097 3.36 10.152"/><path fill="#130506" d="M520.329 399.697c-8.18 3.134-14.214.585-16.661-6.692-2.15-6.395 1.543-13.405 8.02-15.347 4.309-1.292 7.794.091 10.757 3.172 3.246 3.374 4.518 7.483 2.874 11.845-.943 2.502-3.064 4.559-4.99 7.022m-1.961-2.396c1.072-1.02 2.39-1.881 3.17-3.09 2.782-4.312 1.471-10.023-2.755-12.75-3.724-2.404-8.223-1.454-10.986 2.317-2.862 3.907-2.48 9.92 1.57 12.462 2.22 1.394 5.52 1.07 9 1.061m-29.685-39.649c1.685-4.339 4.947-5.784 8.49-4.2 1.962.879 4.424 4.176 4.073 5.835-.49 2.316-3.047 5.096-5.351 5.93-4.114 1.49-7.138-1.885-7.212-7.565m8.723-.925c-1.864.291-3.785.421-5.538 1.03-.296.104-.319 2.9.318 3.357 1.135.814 3.69 1.522 4.183.969 1.023-1.15 1.086-3.156 1.037-5.356"/><path fill="#120405" d="M534.377 412.477c.48-5.465 3.022-8.2 6.797-7.402 3.924.83 5.761 3.763 4.678 7.408-.59 1.99-2.768 4.358-4.7 4.912-3.28.939-5.546-1.377-6.775-4.918m3.167.301c1.466.414 2.988 1.23 4.371 1.04.543-.075 1.243-2.502.997-3.674-.187-.894-1.753-1.498-2.705-2.231-.994 1.394-1.987 2.789-2.663 4.865"/><path fill="#0F0607" d="M389.596 403.028c3.78-5.533 8.443-7.07 13.28-4.673 4.402 2.18 6.671 6.73 5.475 10.979-1.456 5.173-6.08 8.32-11.225 7.64-6.023-.798-8.912-5.89-7.53-13.946m15.911 5.868c1.467-5.897-4.772-10.182-8.362-8.332-2.286 1.178-5.139 4.113-5.096 6.205.05 2.408 2.52 5.785 4.825 6.891 3.49 1.674 6.69-.338 8.633-4.764"/><path fill="#120607" d="M456.708 463.908c.386.432.501.753.857 1.162.548 9.335-2.484 13.676-9.2 14.113-4.798.313-8.032-1.89-10.034-5.862-2.008-3.981-1.006-7.894 1.984-10.967 3.305-3.395 7.41-4.224 11.84-2.15 1.038.487 1.953 1.234 3.258 1.952.564.607.794 1.125 1.295 1.752m-2.01 3.26c-.746-1.084-1.315-2.368-2.271-3.214-2.857-2.528-6.1-2.708-9.087-.402-2.688 2.075-3.976 4.917-2.428 8.34 1.556 3.442 4.298 5.055 8.032 4.357 4.523-.846 6.303-3.872 5.755-9.082"/><path fill="#110708" d="M200.985 418.282c.273-.473.56-.642.92-1.057.365-.414.656-.582 1.01-1.002 8.562-1.499 11.284-.278 13.193 5.405 1.386 4.13.284 7.937-2.911 10.186-2.023 1.423-5.567 1.672-8.133 1.107-4.115-.908-5.429-4.43-5.16-8.494.076-1.155.091-2.314.173-3.907.333-.935.627-1.435.908-2.238m3.222 10.748c2.37 2.388 4.938 2.796 7.433.355 2.587-2.531 3.136-5.796.843-8.512-1.228-1.454-4.106-2.715-5.82-2.305-3.557.85-4.539 4.039-3.89 7.551.145.785.618 1.51 1.434 2.911"/><path fill="#C290A7" d="M406.996 423.831c3.122-1.583 5.412-.772 6.2 2.077.377 1.357-.36 3.814-1.436 4.564-1.124.784-3.698.753-4.864-.048-2.473-1.698-2.207-4.174.1-6.593"/><path fill="#F8F8F8" d="M260.674 168.28c-8.53-12.373-21.122-16.635-33.084-11.071-8.726 4.06-13.727 11.042-14.323 20.578-.573 9.162 3.488 16.356 11.132 21.488 1.203.808 2.353 1.696 3.51 2.57.07.054-.018.318-.097 1.22-1.676-.448-3.29-.732-4.795-1.305-15.495-5.895-23.35-18.971-19.81-32.893 3.514-13.83 18.156-23.121 33.645-21.08 11.812 1.556 20.242 7.772 24.512 19.553-.358.674-.524.807-.69.94"/><path fill="#FBFBFB" d="M248.296 180.088c-1.878 1.129-3.37 2.34-5.06 2.77-4.303 1.094-9.16-1.354-10.715-5.282-1.551-3.918-.317-7.173 2.954-9.645 3.757-2.838 9.033-2.62 12.346.65 3.48 3.433 3.522 7.282.475 11.507"/><path fill="#F6F6F6" d="M226.883 190.9c.3-3.515 2.032-5.715 5.078-4.575 1.484.556 2.682 3.364 2.876 5.268.103 1.006-2.475 3.367-3.404 3.159-1.679-.376-3.028-2.22-4.55-3.852"/><path fill="#F8F8F8" d="M261.431 167.697c.445.864.63 1.911.815 2.959l-.734.197a39 39 0 0 1-.763-2.214c.09-.492.257-.625.682-.942m137.381 1.47c-7.628-11.53-17.27-16.173-28.36-13.656-10.047 2.28-17.805 9.785-19.234 19.305-1.584 10.546 2.263 18.894 11.243 24.78.787.516 1.582 1.021 2.171 2.48-1.63-.216-3.344-.178-4.875-.689-12.435-4.15-20.726-16.024-19.71-28.057 1.032-12.24 11.368-23.128 24.017-25.301 16.166-2.779 29.868 4.858 35.303 20.282-.288.633-.422.745-.555.856"/><path fill="#FAFAFA" d="M371.318 169.606c.869-.864 1.435-1.508 2.136-1.932 4.663-2.82 9.887-2.056 12.956 1.985 2.707 3.566 2.343 7.17-.507 10.448-2.95 3.396-8.388 3.97-12.3 1.498-4.085-2.581-4.918-6.432-2.285-12"/><path fill="#EAEAEA" d="M371.68 187.317c2.065 2.996 1.73 5.586-1.094 7.011-1.216.614-4.174.156-4.689-.752-.884-1.56-1.317-4.697-.39-5.624 1.137-1.138 3.865-.687 6.173-.635"/><path fill="#F8F8F8" d="M399.42 168.674c.28.898.352 1.955.425 3.012l-.536.035c-.148-.622-.297-1.245-.471-2.21.107-.455.24-.567.582-.837"/><path fill="#D85203" d="M275.918 223.967c9.863-9.91 22.525-8.053 28.424 4.147 4.636 9.59 4.068 19.1-2.389 27.793-6.709 9.032-18.432 9.25-25.756.696-7.65-8.936-7.851-21.658-.279-32.636m7.726-1.358c-11.112 5.97-13.995 21.239-5.811 30.778 4.33 5.046 10.456 6.678 16.16 4.306 8.073-3.357 12.341-14.155 9.434-23.867-2.752-9.193-9.35-13.207-19.783-11.217"/><path fill="#CB97AE" d="M445.5 390.159c.89-4.906 3.804-8.098 8.075-7.65 2.876.301 6.333 2.825 7.957 5.362 2.085 3.258.757 7.083-2.399 9.716-5.468 4.564-12.351 1.019-13.634-7.428"/><path fill="#CB97AF" d="M357.331 477.801c-1.623-2.871-3.896-5.534-3.98-8.265-.136-4.41 4.495-7.468 8.672-6.71 4.397.796 7.059 5.143 6.01 9.817-1.046 4.668-5.028 6.717-10.702 5.158"/><path fill="#C391A8" d="M513.52 481.437c-.429-1.945-.878-3.764-.442-5.337.148-.53 2.826-.994 3.824-.477 1.01.521 1.37 2.296 2.015 3.522-1.69.838-3.38 1.677-5.397 2.292"/><path fill="#CC98AF" d="M459.397 342.708c-3.478-2.83-4.708-6.164-3.041-9.927 1.768-3.994 5.247-5.83 9.598-5.738 4.316.092 8.093 1.829 9.255 6.064.637 2.325.179 6.23-1.382 7.584-2.468 2.145-6.205 3.042-9.554 3.853-1.312.317-3.026-1.025-4.876-1.836"/><path fill="#CB97AF" d="M518.034 397.53c-3.147-.22-6.446.104-8.667-1.29-4.05-2.542-4.432-8.555-1.57-12.462 2.763-3.771 7.262-4.72 10.986-2.317 4.226 2.727 5.537 8.438 2.756 12.75-.78 1.209-2.1 2.07-3.505 3.32"/><path fill="#C290A7" d="M497.658 357c-.204 1.927-.267 3.932-1.29 5.083-.493.553-3.048-.155-4.183-.97-.637-.456-.614-3.252-.318-3.355 1.753-.61 3.674-.74 5.791-.758"/><path fill="#C190A6" d="M537.385 412.437c.835-1.735 1.828-3.13 2.822-4.524.952.733 2.518 1.337 2.705 2.23.246 1.173-.454 3.6-.997 3.675-1.383.19-2.905-.626-4.53-1.38"/><path fill="#C996AD" d="M405.369 409.251c-1.805 4.07-5.004 6.083-8.495 4.409-2.306-1.106-4.775-4.483-4.825-6.89-.043-2.093 2.81-5.028 5.096-6.206 3.59-1.85 9.829 2.435 8.224 8.687"/><path fill="#CB97AE" d="M454.798 467.55c.449 4.827-1.33 7.853-5.854 8.699-3.734.698-6.476-.915-8.032-4.357-1.548-3.423-.26-6.265 2.428-8.34 2.987-2.306 6.23-2.126 9.087.402.956.846 1.525 2.13 2.37 3.596"/><path fill="#CA96AD" d="M203.96 428.706c-.569-1.077-1.042-1.802-1.187-2.587-.649-3.512.333-6.7 3.89-7.551 1.714-.41 4.592.851 5.82 2.305 2.293 2.716 1.744 5.98-.843 8.512-2.495 2.441-5.063 2.033-7.68-.68"/><path fill="#130500" d="M284.012 222.422c10.066-1.803 16.663 2.211 19.415 11.404 2.907 9.712-1.361 20.51-9.434 23.867-5.704 2.372-11.83.74-16.16-4.306-8.184-9.54-5.301-24.808 6.18-30.965m8.188 2.7c-1.769-.105-3.605-.566-5.294-.248-5.859 1.103-9.615 5.92-10.768 13.361-.895 5.78 2.471 13.216 7.225 15.962 4.726 2.73 8.46 1.983 12.734-1.524 7.345-6.026 7.266-22.747-3.897-27.552"/><path fill="#700" d="M292.55 225.258c10.814 4.668 10.893 21.389 3.548 27.415-4.275 3.507-8.008 4.253-12.734 1.524-4.754-2.746-8.12-10.182-7.225-15.962 1.153-7.441 4.91-12.258 10.768-13.361 1.689-.318 3.525.143 5.642.384"/></svg>