<svg fill="none" height="652" viewBox="0 0 653 652" width="653" xmlns="http://www.w3.org/2000/svg" xmlns:xlink="http://www.w3.org/1999/xlink"><linearGradient id="a" gradientUnits="userSpaceOnUse" x1="520.577" x2="152.448" y1="393.283" y2="393.91"><stop offset=".422592" stop-color="#33312c"/><stop offset="1" stop-color="#f3c622"/></linearGradient><mask id="b" height="333" maskUnits="userSpaceOnUse" width="155" x="249" y="207"><path d="m249.803 386.899c0-72.69 58.68-179.721 76.096-179.721s77.664 102.265 77.664 174.954c0 72.69-56.088 157.131-77.664 157.131s-76.096-79.674-76.096-152.364z" fill="#fff"/></mask><mask id="c" height="333" maskUnits="userSpaceOnUse" width="155" x="249" y="207"><path d="m249.803 386.899c0-72.69 58.68-179.721 76.096-179.721s77.664 102.265 77.664 174.954c0 72.69-56.088 157.131-77.664 157.131s-76.096-79.674-76.096-152.364z" fill="#fff"/></mask><mask id="d" height="333" maskUnits="userSpaceOnUse" width="155" x="249" y="207"><path d="m249.803 386.899c0-72.69 58.68-179.721 76.096-179.721s77.664 102.265 77.664 174.954c0 72.69-56.088 157.131-77.664 157.131s-76.096-79.674-76.096-152.364z" fill="#fff"/></mask><mask id="e" height="10" maskUnits="userSpaceOnUse" width="155" x="249" y="307"><path d="m249.81 307.324s39.099 9.425 76.887 9.497c37.789.072 76.873-8.95 76.873-8.95" fill="#fff"/></mask><path d="m.923309 325.764c0-179.914 145.850691-325.764 325.764691-325.764 179.918 0 325.769 145.85 325.769 325.764 0 179.915-145.851 325.765-325.769 325.765-179.914 0-325.764691-145.85-325.764691-325.765z" fill="#f28f22"/><g fill="#e0f222"><path d="m16.0213 423.971c3.516-3.951 6.851-7.892 9.963-11.825 60.091-76.024 37.856-129.891-13.135-173.669-7.71601 27.793-11.924007 57.039-11.924007 87.286 0 34.232 5.308997 67.213 15.096007 98.208z"/><path d="m235.853 343.584c22.497-81.819-80.022-152.457-174.9837-206.018-7.179 10.118-13.837 20.623-19.841 31.549 82.9267 47.54 164.4307 111.73 130.3157 192.672-22.429 53.204-77.9407 90.006-123.9457 131.7 5.906 9.817 12.319 19.291 19.196 28.395 58.0397-58.595 147.4487-98.969 169.2587-178.298z"/><path d="m412.613 262.293c31.369 119.192-143.521 195.534-208.963 268.498-22.656 25.261-40.159 46.882-49.654 71.159 9.452 5.923 19.209 11.394 29.28 16.337 5.188-23.236 15.964-46.95 34.254-71.566 68.962-92.818 248.025-152.65 223.473-289.332-18.595-103.517-128.137-157.061-164.389-253.55318-22.927 3.5375-45.029 9.52508-66.116 17.58008 51.493 90.8831 175.018 137.9111 202.115 240.8771z"/><path d="m520.171 242.791c34.898 155.904-185.85 218.96-259.455 326.04-15.542 22.604-22.948 46.026-24.767 69.796 13.067 3.782 26.439 6.834 40.125 8.97 1.388-24.642 8.416-48.885 23.731-72.224 73.686-112.302 301.857-168.799 274.993-328.374-12.723-75.586-59.665-134.159-84.767-203.0479-25.313-14.7042-52.745-26.172-81.792-33.6597 24.637 84.0537 92.215 144.4316 111.932 232.4996z"/><path d="m139.029 549.709c57.198-75.427 238.741-147.346 228.391-258.475-9.138-98.1-150.067-158.672-236.575-225.7859-9.714 7.32-18.955 15.212-27.78 23.551 97.31 61.3409 227.596 126.9629 225.06 214.7259-3.336 115.393-166.061 168.193-228.5537 255.474 6.8727 6.689 14.0117 13.097 21.4527 19.162 4.84-9.594 10.797-19.149 18.005-28.652z"/><path d="m453.171 568.01c39.187-68.36 112.607-102.785 183.043-140.658 2.386-7.277 4.56-14.648 6.439-22.145-68.485 47.643-151.537 81.122-203.284 150.712-19.708 26.503-26.912 54.76-26.168 83.907 8.205-2.256 16.303-4.767 24.233-7.634-.468-22.26 4.049-43.799 15.737-64.182z"/><path d="m501.161 583.25c-2.893 6.98-4.771 14.098-5.859 21.298 51.124-30.986 92.969-75.68 120.615-128.936-51.678 27.307-95.053 60.099-114.756 107.638z"/><path d="m651.356 351.405c.662-8.472 1.101-17.004 1.101-25.639 0-16.6-1.26-32.899-3.654-48.829-11.433 133.914-199.592 182.472-270.72 281.617-22.734 31.691-32.831 62.308-34.774 92.555 9.422-.473 18.715-1.427 27.914-2.686.945-27.114 8.325-54.357 25.338-81.87 56.11-90.742 192.818-129.362 254.795-215.148z"/></g><path d="m249.803 386.899c0-72.69 58.68-179.721 76.096-179.721s77.664 102.265 77.664 174.954c0 72.69-56.088 157.131-77.664 157.131s-76.096-79.674-76.096-152.364z" fill="url(#a)" stroke="#33312c" stroke-linejoin="round" stroke-miterlimit="10" stroke-width="24.4819"/><path d="m253.923 207.178s1.919-72.759 72.76-72.759 72.759 72.759 72.759 72.759z" fill="#f3c622" stroke="#33312c" stroke-linejoin="round" stroke-miterlimit="10" stroke-width="24.4819"/><path d="m294.878 134.419s-12.67-29.588-37.864-20.375" stroke="#33312c" stroke-linecap="round" stroke-linejoin="round" stroke-miterlimit="10" stroke-width="24.4819"/><path d="m360.027 134.419s12.669-29.588 37.864-20.375" stroke="#33312c" stroke-linecap="round" stroke-linejoin="round" stroke-miterlimit="10" stroke-width="24.4819"/><path d="m249.803 386.899c0-72.69 58.68-179.721 76.096-179.721s77.664 102.265 77.664 174.954c0 72.69-56.088 157.131-77.664 157.131s-76.096-79.674-76.096-152.364z" stroke="#f2ac22" stroke-linejoin="round" stroke-miterlimit="10" stroke-width="24.4819"/><g mask="url(#b)"><path d="m249.803 363.724s39.099 9.425 76.887 9.497 76.873-8.95 76.873-8.95" stroke="#f2de22" stroke-miterlimit="10" stroke-width="24.4819"/></g><path d="m249.803 386.899c0-72.69 58.68-179.721 76.096-179.721s77.664 102.265 77.664 174.954c0 72.69-56.088 157.131-77.664 157.131s-76.096-79.674-76.096-152.364z" stroke="#f3c622" stroke-linejoin="round" stroke-miterlimit="10" stroke-width="24.4819"/><g mask="url(#c)"><path d="m253.923 420.139s36.387 12.239 72.767 12.239 72.752-12.239 72.752-12.239" stroke="#f3c622" stroke-linecap="round" stroke-miterlimit="10" stroke-width="24.4819"/></g><path d="m249.803 386.899c0-72.69 58.68-179.721 76.096-179.721s77.664 102.265 77.664 174.954c0 72.69-56.088 157.131-77.664 157.131s-76.096-79.674-76.096-152.364z" stroke="#f2de22" stroke-linejoin="round" stroke-miterlimit="10" stroke-width="24.4819"/><g mask="url(#d)"><path d="m275.946 478.66s26.203 9.412 50.737 9.349c24.534-.062 47.398-9.598 47.398-9.598" stroke="#f2de22" stroke-linecap="square" stroke-miterlimit="10" stroke-width="24.4819"/></g><path d="m249.81 307.324s39.099 9.425 76.887 9.497c37.789.072 76.873-8.95 76.873-8.95" stroke="#f3c622" stroke-miterlimit="10" stroke-width="24.4819"/><g mask="url(#e)"><path d="m249.803 386.899c0-72.69 58.68-179.721 76.096-179.721s77.664 102.265 77.664 174.954c0 72.69-56.088 157.131-77.664 157.131s-76.096-79.674-76.096-152.364z" stroke="#f3c622" stroke-linejoin="round" stroke-miterlimit="10" stroke-width="24.4819"/></g><path d="m249.803 386.899c0-72.69 58.68-179.721 76.096-179.721s77.664 102.265 77.664 174.954c0 72.69-56.088 157.131-77.664 157.131s-76.096-79.674-76.096-152.364z" stroke="#33312c" stroke-linejoin="round" stroke-miterlimit="10" stroke-width="24.4819"/><path d="m305.143 207.932c-40.328.357-128.872 15.982-192.184 56.11-103.22168 65.422-34.0447 143.533 27.942 142.673 95.975-1.332 185.778-167.967 185.778-194.373 0-1.744-2.869-3.017-8.028-3.736-3.506-.489-8.069-.722-13.508-.674zm21.536 4.41c0 26.406 89.803 193.041 185.778 194.373 61.987.86 131.196-77.251 27.974-142.673-71.502-45.319-175.232-59.364-205.296-55.48-5.429.701-8.456 1.988-8.456 3.78z" fill="#fff"/><path d="m326.679 212.342c0 26.406-89.803 193.041-185.778 194.373-61.9867.86-131.16368-77.251-27.942-142.673 63.312-40.128 151.856-55.753 192.184-56.11 5.439-.048 10.002.185 13.508.674 5.159.719 8.028 1.992 8.028 3.736zm0 0c0 26.406 89.803 193.041 185.778 194.373 61.987.86 131.196-77.251 27.974-142.673-71.502-45.319-175.232-59.364-205.296-55.48-5.429.701-8.456 1.988-8.456 3.78z" stroke="#33312c" stroke-linejoin="round" stroke-miterlimit="10" stroke-width="24.4819"/></svg>